<?xml version="1.0" encoding="UTF-8"?>
<svg version="1.1" xmlns="http://www.w3.org/2000/svg" width="610" height="370">
<path d="M0 0 C0.66 0 1.32 0 2 0 C8.3881988 16.64530672 13.91598321 33.57671326 19.51147461 50.49975586 C23.90074525 63.77213021 28.35742687 77.01275902 33.00585938 90.19726562 C33.38162109 91.27298828 33.75738281 92.34871094 34.14453125 93.45703125 C34.64496948 94.8797937 34.64496948 94.8797937 35.15551758 96.33129883 C36 99 36 99 37 104 C73.96 104 110.92 104 149 104 C149 104.99 149 105.98 149 107 C148.67 107.33 148.34 107.66 148 108 C148.99 108.33 149.98 108.66 151 109 C151 109.66 151 110.32 151 111 C149.53808594 112.29345703 149.53808594 112.29345703 147.484375 113.7578125 C146.72640625 114.30179687 145.9684375 114.84578125 145.1875 115.40625 C144.383125 115.9734375 143.57875 116.540625 142.75 117.125 C141.99203125 117.66898437 141.2340625 118.21296875 140.453125 118.7734375 C138.88673392 119.89079647 137.30613466 120.98849268 135.71228027 122.0663147 C132.99265827 123.92897753 132.99265827 123.92897753 130.69396973 126.06967163 C120.73530806 134.25570102 110.02425978 133.02237724 97.734375 132.78125 C95.48710149 132.76630616 93.2398017 132.75492928 90.99249268 132.74694824 C85.11300121 132.71658342 79.23512204 132.63815509 73.35626221 132.54931641 C67.34319869 132.46708648 61.32987146 132.43085762 55.31640625 132.390625 C43.54356725 132.3051459 31.77191834 132.16882928 20 132 C19.65874084 130.97360413 19.31748169 129.94720825 18.96588135 128.88970947 C17.68021774 125.02355938 16.39350751 121.15775825 15.10650635 117.29205322 C14.55324933 115.62979238 14.00026332 113.9674413 13.4475708 112.30499268 C9.41061327 100.16303141 5.29989757 88.05182558 1 76 C-1.78272609 83.64128232 -4.46252831 91.3076571 -7.0078125 99.03125 C-7.26270447 99.80380127 -7.51759644 100.57635254 -7.7802124 101.37231445 C-8.83035428 104.5590541 -9.87858348 107.74639753 -10.92138672 110.93554688 C-11.69610988 113.30214734 -12.47654864 115.66680204 -13.2578125 118.03125 C-13.48912872 118.74381958 -13.72044495 119.45638916 -13.95877075 120.19055176 C-15.32422867 124.30799302 -16.71481172 128.28771765 -19 132 C-21.78828571 132.99753315 -24.38002444 133.11847817 -27.32202148 133.09765625 C-28.16647324 133.09435303 -29.01092499 133.0910498 -29.88096619 133.08764648 C-30.78520828 133.07934814 -31.68945038 133.0710498 -32.62109375 133.0625 C-33.55800552 133.05871338 -34.4949173 133.05492676 -35.46022034 133.05102539 C-39.46385031 133.03469212 -43.4673778 133.00655857 -47.47094727 132.97949219 C-50.39599129 132.96139962 -53.3210187 132.94930992 -56.24609375 132.9375 C-57.14831161 132.92920166 -58.05052948 132.92090332 -58.98008728 132.91235352 C-63.12228635 132.89621083 -66.96111644 132.94007343 -71 134 C-66.69124654 137.85037543 -62.34568833 141.16378081 -57.5078125 144.3125 C-53.60739253 146.93708166 -49.88177823 149.77995196 -46.15234375 152.640625 C-43.97753016 154.26836652 -41.82603906 155.80195253 -39.56640625 157.296875 C-39.01122314 157.67674561 -38.45604004 158.05661621 -37.8840332 158.44799805 C-36.33515694 159.50441821 -34.76954756 160.53618218 -33.203125 161.56640625 C-30.64131347 164.3962087 -30.59707865 165.8683874 -30.70770264 169.59336853 C-31.29302461 174.41261927 -32.94475485 178.92054772 -34.5 183.5 C-35.03270508 185.11442993 -35.03270508 185.11442993 -35.57617188 186.76147461 C-36.706362 190.17811484 -37.8528973 193.58900544 -39 197 C-39.77192098 199.32385775 -40.54276616 201.64807314 -41.3125 203.97265625 C-43.19589709 209.65263762 -45.09272247 215.3279958 -47 221 C-45.55264707 220.04359861 -44.10640846 219.08551073 -42.66064453 218.12670898 C-41.85515167 217.59335434 -41.04965881 217.05999969 -40.21975708 216.51048279 C-37.70194168 214.79717962 -35.36376255 212.91913197 -33 211 C-29.6598008 208.5773654 -26.26467334 206.23202434 -22.87988281 203.87231445 C-19.10485581 201.22826883 -15.37596693 198.54996948 -11.7265625 195.734375 C-10.72085205 194.96589233 -10.72085205 194.96589233 -9.69482422 194.18188477 C-8.42377835 193.20522499 -7.16186165 192.21653655 -5.91064453 191.21459961 C-1.63225677 187.94723777 -1.63225677 187.94723777 1.42822266 188.20263672 C4.20214372 189.06267338 5.99488647 190.14327948 8.3203125 191.87109375 C9.10277344 192.44537109 9.88523438 193.01964844 10.69140625 193.61132812 C11.49449219 194.21396484 12.29757813 194.81660156 13.125 195.4375 C14.73159872 196.62393101 16.33836273 197.81013826 17.9453125 198.99609375 C18.65187988 199.52388428 19.35844727 200.0516748 20.08642578 200.59545898 C21.69276695 201.77449454 23.34205616 202.89470411 25 204 C25.33 202.741875 25.66 201.48375 26 200.1875 C26.63288663 198.44568591 27.30321583 196.71725177 28 195 C28.36351562 194.05253906 28.72703125 193.10507813 29.1015625 192.12890625 C31.04405346 188.45809641 32.61882398 186.46783739 36 184 C43.73838228 181.97003846 52.07436317 182.64619117 60 182.8125 C62.22785456 182.81946306 64.45573048 182.82146772 66.68359375 182.81835938 C72.12395642 182.82153764 77.5608761 182.88666893 83 183 C78.01921886 182.90586415 73.03888977 182.79964263 68.05859375 182.68261719 C66.3672577 182.64452985 64.67584622 182.6096431 62.984375 182.578125 C60.54139394 182.53203102 58.09892319 182.47411441 55.65625 182.4140625 C54.91008423 182.40251129 54.16391846 182.39096008 53.3951416 182.37905884 C45.51138252 182.16153553 38.50224431 180.62659691 32 176 C27.03392103 169.40865883 26.41053647 162.97958966 27 155 C28.01467438 149.88363345 29.89516742 146.16734419 34.23597717 143.01911926 C42.02022042 138.52197097 50.0091948 138.59780726 58.78515625 138.70703125 C60.73040443 138.71339851 60.73040443 138.71339851 62.71495056 138.71989441 C66.13286256 138.73125102 69.55038117 138.76063645 72.96813965 138.79400635 C76.46763796 138.82490767 79.96720094 138.83844223 83.46679688 138.85351562 C90.31135768 138.88551709 97.15565986 138.93659941 104 139 C103.57454726 140.89437237 103.13569424 142.78573763 102.69140625 144.67578125 C102.44849854 145.72934814 102.20559082 146.78291504 101.95532227 147.8684082 C100.54205404 152.50116864 98.13368516 156.3251213 95 160 C91.61947726 161.69026137 87.77739858 161.24444959 84.0546875 161.31640625 C83.1696756 161.33718735 82.2846637 161.35796844 81.37283325 161.37937927 C78.54030259 161.44486598 75.70767775 161.50375562 72.875 161.5625 C70.95702143 161.60568606 69.03905246 161.64930037 67.12109375 161.69335938 C62.41415949 161.80054647 57.70713033 161.9018164 53 162 C54.13953125 162.01458252 55.2790625 162.02916504 56.453125 162.04418945 C60.71010587 162.1024782 64.9665746 162.17970762 69.22314453 162.26245117 C71.05997358 162.29555738 72.89690086 162.32363317 74.73388672 162.34643555 C77.38551411 162.38024631 80.03625283 162.43257293 82.6875 162.48828125 C83.49928711 162.49467117 84.31107422 162.5010611 85.14746094 162.50764465 C91.16137041 162.66022028 97.42406464 163.40782975 101.859375 167.87109375 C106.16733832 175.91164172 108.11970965 182.97413956 106 192 C104.54801511 196.43786152 102.82382894 199.27196512 99.3125 202.375 C91.07908084 206.41403581 82.45236552 206.32882657 73.43359375 206.4140625 C71.52163963 206.44311172 71.52163963 206.44311172 69.57106018 206.4727478 C66.21252731 206.52212417 62.85409602 206.56350681 59.49542236 206.60089111 C56.05609651 206.64118336 52.61692995 206.69215944 49.17773438 206.7421875 C42.45192604 206.83788236 35.72604726 206.92302682 29 207 C31.95661903 209.14820331 34.91558094 211.29315614 37.875 213.4375 C38.71675781 214.04916016 39.55851563 214.66082031 40.42578125 215.29101562 C41.23144531 215.87431641 42.03710938 216.45761719 42.8671875 217.05859375 C43.61081543 217.59798584 44.35444336 218.13737793 45.12060547 218.69311523 C46.9647311 220.04214515 46.9647311 220.04214515 49 221 C49 217.37 49 213.74 49 210 C56.26 210 63.52 210 71 210 C72.91519232 214.46878208 74.64448444 218.68493648 76.1640625 223.26171875 C76.55988525 224.45015381 76.95570801 225.63858887 77.36352539 226.86303711 C77.78428977 228.13776805 78.20477485 229.4125912 78.625 230.6875 C79.06302239 232.01116473 79.50109279 233.33481358 79.93920898 234.65844727 C81.07189491 238.08544312 82.19908721 241.51422103 83.32452393 244.94360352 C83.99060686 246.97140384 84.65886377 248.99847607 85.32763672 251.02539062 C86.5809502 254.8267268 87.82268514 258.63173919 89.0625 262.4375 C89.44422363 263.59660889 89.82594727 264.75571777 90.21923828 265.94995117 C92.52058954 273.06642926 94.22830821 279.46582908 94 287 C88.31940368 284.03059738 83.38097178 280.35367618 78.28515625 276.4765625 C75.02598865 274.00422468 71.710265 271.61827226 68.375 269.25 C62.98386754 265.41789426 57.61031336 261.56261997 52.25 257.6875 C51.49251465 257.1399707 50.7350293 256.59244141 49.95458984 256.02832031 C48.407806 254.91009253 46.86109413 253.79176518 45.31445312 252.67333984 C41.54406978 249.9473686 37.77194168 247.22381431 34 244.5 C33.26797363 243.97124268 32.53594727 243.44248535 31.78173828 242.89770508 C27.85792891 240.0634604 23.93336938 237.23026142 20.0078125 234.3984375 C19.19054687 233.80869141 18.37328125 233.21894531 17.53125 232.61132812 C15.96636346 231.48212022 14.40127044 230.35319839 12.8359375 229.22460938 C12.12953125 228.71478516 11.423125 228.20496094 10.6953125 227.6796875 C10.07672363 227.23351074 9.45813477 226.78733398 8.82080078 226.32763672 C7 225 7 225 5.08154297 223.27001953 C3.04975434 221.75906761 3.04975434 221.75906761 0.50244141 222.14624023 C-2.08288731 223.02827872 -3.85156614 224.03600851 -6.0390625 225.66015625 C-6.77842041 226.2022876 -7.51777832 226.74441895 -8.27954102 227.30297852 C-9.05354248 227.88362061 -9.82754395 228.4642627 -10.625 229.0625 C-11.43187256 229.65667725 -12.23874512 230.25085449 -13.07006836 230.86303711 C-15.38506839 232.56869216 -17.69271481 234.28393352 -20 236 C-21.85190063 237.35726395 -23.70562691 238.71204685 -25.5625 240.0625 C-26.40941406 240.67996094 -27.25632812 241.29742187 -28.12890625 241.93359375 C-31.02151838 244.01548738 -33.93338215 246.06759381 -36.85009766 248.11547852 C-43.85865325 253.03643005 -50.80309762 258.03156605 -57.6875 263.125 C-68.91889286 271.42947192 -80.12052086 279.63242527 -92 287 C-92.81741462 278.22457694 -90.75246106 270.93138216 -87.84176636 262.75286865 C-86.75340866 259.69370337 -85.70320156 256.62179712 -84.6497345 253.55047607 C-84.06729546 251.8535809 -83.4829196 250.15734948 -82.89677429 248.46173096 C-79.16238741 237.63849369 -75.62430381 226.75076065 -72.07589722 215.865448 C-70.95364618 212.42450592 -69.82791712 208.98471875 -68.70141602 205.54516602 C-67.99743144 203.39213141 -67.29356858 201.23905701 -66.58984375 199.0859375 C-66.27151581 198.11429153 -65.95318787 197.14264557 -65.62521362 196.14155579 C-61.79408549 186.25312109 -61.79408549 186.25312109 -60 176 C-60.78697266 175.65195312 -60.78697266 175.65195312 -61.58984375 175.296875 C-64.79821341 173.57049132 -67.64909209 171.42280905 -70.5625 169.25 C-71.90884884 168.25389904 -73.25520327 167.25780566 -74.6015625 166.26171875 C-75.67132324 165.46773682 -75.67132324 165.46773682 -76.76269531 164.65771484 C-79.05380632 162.96013259 -81.3502773 161.27005619 -83.6484375 159.58203125 C-91.17219284 154.05396494 -98.67467965 148.50167922 -106.125 142.875 C-112.26744248 138.23894771 -118.52423777 133.78748046 -124.82958984 129.37646484 C-131.37525846 124.77824277 -137.71882232 119.95315725 -144 115 C-144.94359375 114.2884375 -145.8871875 113.576875 -146.859375 112.84375 C-147.56578125 112.2353125 -148.2721875 111.626875 -149 111 C-149 110.34 -149 109.68 -149 109 C-148.34 109 -147.68 109 -147 109 C-147.2784375 108.0409375 -147.2784375 108.0409375 -147.5625 107.0625 C-147.706875 106.381875 -147.85125 105.70125 -148 105 C-147 104 -147 104 -145.12780666 103.87695217 C-143.89029958 103.87833486 -143.89029958 103.87833486 -142.62779236 103.87974548 C-141.68403244 103.87837082 -140.74027252 103.87699615 -139.76791382 103.87557983 C-138.72422638 103.87917511 -137.68053894 103.88277039 -136.60522461 103.88647461 C-135.51267868 103.88632858 -134.42013275 103.88618256 -133.29447937 103.8860321 C-129.66374767 103.88673178 -126.03306654 103.89452671 -122.40234375 103.90234375 C-119.89270557 103.90420774 -117.38306702 103.90563173 -114.87342834 103.90663147 C-108.93065407 103.91006652 -102.98789616 103.91795727 -97.04513031 103.92798096 C-89.61798075 103.94023747 -82.19082895 103.94562208 -74.76367188 103.95117188 C-61.50910527 103.96191189 -48.25455379 103.97879918 -35 104 C-34.79722285 103.25011181 -34.59444571 102.50022362 -34.3855238 101.72761154 C-34.11780824 100.74103184 -33.85009268 99.75445213 -33.57426453 98.73797607 C-33.17728631 97.27283129 -33.17728631 97.27283129 -32.77228832 95.77808762 C-31.82869892 92.38379309 -30.76212743 89.04399189 -29.64453125 85.703125 C-29.42580856 85.04696198 -29.20708588 84.39079895 -28.98173523 83.7147522 C-28.26189723 81.55873491 -27.53742391 79.40431209 -26.8125 77.25 C-26.2954754 75.70722669 -25.77855114 74.16441975 -25.26171875 72.62158203 C-23.51435149 67.41217814 -21.75767408 62.20593374 -20 57 C-19.49844391 55.51336853 -19.49844391 55.51336853 -18.98675537 53.9967041 C-16.85018087 47.66501591 -14.70885117 41.33496021 -12.56210327 35.00671387 C-11.85920167 32.93414075 -11.15706202 30.86130905 -10.45571899 28.78820801 C-9.46286686 25.85524039 -8.46631322 22.92355564 -7.46875 19.9921875 C-7.17747726 19.12993561 -6.88620453 18.26768372 -6.58610535 17.37930298 C-4.580912 11.50504379 -2.3551129 5.74261582 0 0 Z " fill="#127FBA" transform="translate(216,34)"/>
<path d="M0 0 C1.94524818 0.00636726 1.94524818 0.00636726 3.92979431 0.01286316 C7.34770631 0.02421977 10.76522492 0.0536052 14.1829834 0.0869751 C17.68248171 0.11787642 21.18204469 0.13141098 24.68164062 0.14648438 C31.52620143 0.17848584 38.37050361 0.22956816 45.21484375 0.29296875 C44.78939101 2.18734112 44.35053799 4.07870638 43.90625 5.96875 C43.54188843 7.54910034 43.54188843 7.54910034 43.17016602 9.16137695 C41.75689779 13.79413739 39.34852891 17.61809005 36.21484375 21.29296875 C32.83432101 22.98323012 28.99224233 22.53741834 25.26953125 22.609375 C24.38451935 22.6301561 23.49950745 22.65093719 22.587677 22.67234802 C19.75514634 22.73783473 16.9225215 22.79672437 14.08984375 22.85546875 C12.17186518 22.89865481 10.25389621 22.94226912 8.3359375 22.98632812 C3.62900324 23.09351522 -1.07802592 23.19478515 -5.78515625 23.29296875 C-4.645625 23.30755127 -3.50609375 23.32213379 -2.33203125 23.3371582 C1.92494962 23.39544695 6.18141835 23.47267637 10.43798828 23.55541992 C12.27481733 23.58852613 14.11174461 23.61660192 15.94873047 23.6394043 C18.60035786 23.67321506 21.25109658 23.72554168 23.90234375 23.78125 C25.12002441 23.79083488 25.12002441 23.79083488 26.36230469 23.8006134 C32.37621416 23.95318903 38.63890839 24.7007985 43.07421875 29.1640625 C47.38218207 37.20461047 49.3345534 44.26710831 47.21484375 53.29296875 C45.76285886 57.73083027 44.03867269 60.56493387 40.52734375 63.66796875 C32.32603266 67.69125344 23.73817729 67.6214625 14.75390625 67.70703125 C13.48638519 67.7263974 12.21886414 67.74576355 10.91293335 67.76571655 C7.570346 67.81509993 4.22786065 67.85646894 0.88513184 67.89385986 C-2.52459438 67.9340521 -5.93415637 67.98513571 -9.34375 68.03515625 C-27.38881432 68.29296875 -27.38881432 68.29296875 -32.78515625 68.29296875 C-34.21448068 65.43431988 -33.31506392 63.34737714 -32.51171875 60.375 C-31.43071845 57.27729483 -29.73815619 54.91556867 -27.78515625 52.29296875 C-27.47866653 51.70345932 -27.17217682 51.11394989 -26.85639954 50.50657654 C-25.16952724 47.50599285 -23.91870306 45.62010422 -20.52230835 44.6399231 C-17.66677902 44.38543507 -14.88225635 44.34985274 -12.015625 44.390625 C-10.97948563 44.37833359 -9.94334625 44.36604218 -8.87580872 44.3533783 C-5.57403767 44.32164441 -2.2744972 44.33792749 1.02734375 44.35546875 C3.26890097 44.34236023 5.51044222 44.32612064 7.75195312 44.30664062 C13.23991608 44.26578255 18.72682719 44.26431632 24.21484375 44.29296875 C23.16619141 44.27314941 22.11753906 44.25333008 21.03710938 44.23291016 C17.11565699 44.15636102 13.19455203 44.06772307 9.2734375 43.97558594 C7.58210145 43.9374986 5.89068997 43.90261185 4.19921875 43.87109375 C1.75623769 43.82499977 -0.68623306 43.76708316 -3.12890625 43.70703125 C-3.87507202 43.69548004 -4.62123779 43.68392883 -5.39001465 43.67202759 C-13.27377373 43.45450428 -20.28291194 41.91956566 -26.78515625 37.29296875 C-31.75123522 30.70162758 -32.37461978 24.27255841 -31.78515625 16.29296875 C-30.77048187 11.1766022 -28.88998883 7.46031294 -24.54917908 4.31208801 C-16.76493583 -0.18506028 -8.77596145 -0.10922399 0 0 Z " fill="#1885BF" transform="translate(274.78515625,172.70703125)"/>
<path d="M0 0 C5.64209951 1.29147802 9.50928398 3.36846574 14.125 6.8125 C14.71925781 7.23853516 15.31351562 7.66457031 15.92578125 8.10351562 C18.71952715 10.14177836 21.13759878 12.14201709 23.5546875 14.63671875 C26.2325951 17.22479239 28.65349496 18.39188626 32 20 C34.84791811 21.81531903 37.60946809 23.74962728 40.375 25.6875 C41.11105469 26.19861328 41.84710938 26.70972656 42.60546875 27.23632812 C44.40607395 28.48739797 46.20337735 29.74321765 48 31 C48 27.37 48 23.74 48 20 C55.26 20 62.52 20 70 20 C71.91519232 24.46878208 73.64448444 28.68493648 75.1640625 33.26171875 C75.55988525 34.45015381 75.95570801 35.63858887 76.36352539 36.86303711 C76.78428977 38.13776805 77.20477485 39.4125912 77.625 40.6875 C78.06302239 42.01116473 78.50109279 43.33481358 78.93920898 44.65844727 C80.07189491 48.08544312 81.19908721 51.51422103 82.32452393 54.94360352 C82.99060686 56.97140384 83.65886377 58.99847607 84.32763672 61.02539062 C85.5809502 64.8267268 86.82268514 68.63173919 88.0625 72.4375 C88.44422363 73.59660889 88.82594727 74.75571777 89.21923828 75.94995117 C91.52058954 83.06642926 93.22830821 89.46582908 93 97 C87.31940368 94.03059738 82.38097178 90.35367618 77.28515625 86.4765625 C74.02598865 84.00422468 70.710265 81.61827226 67.375 79.25 C61.98386754 75.41789426 56.61031336 71.56261997 51.25 67.6875 C50.49251465 67.1399707 49.7350293 66.59244141 48.95458984 66.02832031 C47.407806 64.91009253 45.86109413 63.79176518 44.31445312 62.67333984 C40.54406978 59.9473686 36.77194168 57.22381431 33 54.5 C32.26797363 53.97124268 31.53594727 53.44248535 30.78173828 52.89770508 C26.85792891 50.0634604 22.93336938 47.23026142 19.0078125 44.3984375 C18.19054687 43.80869141 17.37328125 43.21894531 16.53125 42.61132812 C14.96636346 41.48212022 13.40127044 40.35319839 11.8359375 39.22460938 C11.12953125 38.71478516 10.423125 38.20496094 9.6953125 37.6796875 C9.07672363 37.23351074 8.45813477 36.78733398 7.82080078 36.32763672 C6 35 6 35 4.08154297 33.27001953 C2.04975434 31.75906761 2.04975434 31.75906761 -0.49755859 32.14624023 C-3.08288731 33.02827872 -4.85156614 34.03600851 -7.0390625 35.66015625 C-7.77842041 36.2022876 -8.51777832 36.74441895 -9.27954102 37.30297852 C-10.05354248 37.88362061 -10.82754395 38.4642627 -11.625 39.0625 C-12.83530884 39.95376587 -12.83530884 39.95376587 -14.07006836 40.86303711 C-16.38506839 42.56869216 -18.69271481 44.28393352 -21 46 C-22.85190063 47.35726395 -24.70562691 48.71204685 -26.5625 50.0625 C-27.40941406 50.67996094 -28.25632812 51.29742187 -29.12890625 51.93359375 C-32.02151838 54.01548738 -34.93338215 56.06759381 -37.85009766 58.11547852 C-44.85865325 63.03643005 -51.80309762 68.03156605 -58.6875 73.125 C-69.91500298 81.42659575 -81.1028694 89.66748277 -93 97 C-93.3125 94.8125 -93.3125 94.8125 -93 92 C-89.34517798 87.52105144 -84.56700003 84.37081802 -79.875 81.0625 C-78.26237986 79.91235652 -76.65042259 78.76128317 -75.0390625 77.609375 C-74.20922852 77.01705078 -73.37939453 76.42472656 -72.52441406 75.81445312 C-68.40405491 72.85289517 -64.32801763 69.83195254 -60.25 66.8125 C-54.1410756 62.29685751 -48.00828697 57.82054156 -41.81054688 53.42749023 C-39.1100146 51.5127356 -36.42357264 49.58265083 -33.765625 47.609375 C-32.27289063 46.50335938 -32.27289063 46.50335938 -30.75 45.375 C-29.44289063 44.39660156 -29.44289063 44.39660156 -28.109375 43.3984375 C-26 42 -26 42 -24 42 C-23.90203125 41.40316406 -23.8040625 40.80632812 -23.703125 40.19140625 C-22.20880825 35.53411906 -17.14198614 32.77862692 -13.25 30.125 C-11 29 -11 29 -8 29 C-7.62875 28.1028125 -7.62875 28.1028125 -7.25 27.1875 C-6 25 -6 25 -3.96484375 23.95703125 C-0.74169974 20.74670292 -1.36120792 16.87072381 -1.3125 12.5 C-1.27035911 10.78116243 -1.22492353 9.06240165 -1.17578125 7.34375 C-1.16458252 6.58255859 -1.15338379 5.82136719 -1.1418457 5.03710938 C-1 3 -1 3 0 0 Z " fill="#145784" transform="translate(217,224)"/>
<path d="M0 0 C13.86 0 27.72 0 42 0 C42 0.99 42 1.98 42 3 C43.32 3 44.64 3 46 3 C46 3.66 46 4.32 46 5 C44.53808594 6.29345703 44.53808594 6.29345703 42.484375 7.7578125 C41.34742188 8.57378906 41.34742188 8.57378906 40.1875 9.40625 C39.383125 9.9734375 38.57875 10.540625 37.75 11.125 C36.61304688 11.94097656 36.61304688 11.94097656 35.453125 12.7734375 C33.88673392 13.89079647 32.30613466 14.98849268 30.71228027 16.0663147 C27.99265827 17.92897753 27.99265827 17.92897753 25.69396973 20.06967163 C15.73530806 28.25570102 5.02425978 27.02237724 -7.265625 26.78125 C-9.51289851 26.76630616 -11.7601983 26.75492928 -14.00750732 26.74694824 C-19.88699879 26.71658342 -25.76487796 26.63815509 -31.64373779 26.54931641 C-37.65680131 26.46708648 -43.67012854 26.43085762 -49.68359375 26.390625 C-61.45643275 26.3051459 -73.22808166 26.16882928 -85 26 C-85.66 22.04 -86.32 18.08 -87 14 C-86.34 14 -85.68 14 -85 14 C-85 14.99 -85 15.98 -85 17 C-74.99559818 17.98446667 -65.0608434 18.18625913 -55.01586914 18.18530273 C-52.43814816 18.18749945 -49.86084951 18.2057587 -47.28320312 18.22460938 C-38.32744463 18.2539831 -29.7919871 17.95119543 -21 16 C-20.67 15.01 -20.34 14.02 -20 13 C-17.41098066 11.49632097 -14.88066797 10.16150018 -12.1875 8.875 C-11.46240234 8.51535156 -10.73730469 8.15570313 -9.99023438 7.78515625 C-6.67294447 6.1644492 -3.6182258 4.80449656 0 4 C0 2.68 0 1.36 0 0 Z " fill="#0C5383" transform="translate(321,140)"/>
<path d="M0 0 C-0.33 0.99 -0.66 1.98 -1 3 C-1 3.66 -1 4.32 -1 5 C-3.31 5 -5.62 5 -8 5 C-7.505 6.98 -7.505 6.98 -7 9 C-13.69168093 14.21279847 -20.39349679 19.36143368 -27.375 24.18359375 C-36.07924379 30.20661959 -44.62177967 36.44779784 -53.125 42.75 C-60.67546196 48.34216863 -68.32449903 53.77668555 -76.03881836 59.14013672 C-81.48678394 62.92922311 -86.87320114 66.78287736 -92.19921875 70.7421875 C-94 72 -94 72 -95 72 C-95.3125 69.8125 -95.3125 69.8125 -95 67 C-91.16944311 62.61159502 -86.61574955 59.40519119 -81.875 56.0625 C-80.26237986 54.91235652 -78.65042259 53.76128317 -77.0390625 52.609375 C-76.20922852 52.01705078 -75.37939453 51.42472656 -74.52441406 50.81445312 C-70.40405385 47.85289441 -66.32806206 44.83189401 -62.25 41.8125 C-55.10121554 36.52962284 -47.90639567 31.31940241 -40.65625 26.17675781 C-38.97659796 24.98337296 -37.30027517 23.78545768 -35.625 22.5859375 C-28.33405323 17.365657 -21.01938056 12.18013527 -13.68432617 7.02197266 C-13.00217041 6.54163574 -12.32001465 6.06129883 -11.6171875 5.56640625 C-10.9787793 5.1192627 -10.34037109 4.67211914 -9.68261719 4.21142578 C-8.33648926 3.24226055 -7.03790427 2.20719289 -5.7578125 1.15234375 C-4 0 -4 0 0 0 Z " fill="#0C486F" transform="translate(219,249)"/>
<path d="M0 0 C5.98964064 -0.52474949 8.49426391 0.54357619 13.0625 4.375 C14.19992682 5.30310984 15.33931533 6.22881979 16.48046875 7.15234375 C17.06103027 7.62784668 17.6415918 8.10334961 18.23974609 8.59326172 C21.03463438 10.8268465 23.94881256 12.88079175 26.875 14.9375 C37.81696539 22.6873618 48.58230871 30.66890847 59.2980957 38.7277832 C63.0331184 41.53396413 66.78175807 44.31796141 70.5625 47.0625 C71.82707031 47.98482422 71.82707031 47.98482422 73.1171875 48.92578125 C75.40115386 50.5691229 77.69885202 52.18534826 80.0078125 53.79296875 C81.40113901 54.77850822 82.79436871 55.76418459 84.1875 56.75 C84.86047119 57.21027588 85.53344238 57.67055176 86.22680664 58.14477539 C88.10546875 59.484375 88.10546875 59.484375 91 62 C91 63.32 91 64.64 91 66 C87.27532811 66.55800328 86.0243112 66.01632753 82.8359375 63.875 C81.67300414 62.92795856 80.51978167 61.96890474 79.375 61 C78.12629888 59.98017837 76.87628541 58.96196164 75.625 57.9453125 C74.70267578 57.18976074 74.70267578 57.18976074 73.76171875 56.41894531 C71.35994259 54.48447704 68.87973612 52.67345879 66.375 50.875 C62.54927457 48.12631164 58.76287056 45.33424441 55 42.5 C49.3778007 38.27065523 43.69918317 34.12473257 38 30 C35.24275449 27.99580021 32.48653294 25.99019887 29.73046875 23.984375 C27.96405211 22.70062728 26.19593315 21.41921727 24.42578125 20.140625 C21.60996045 18.10346914 18.80374777 16.05374525 16 14 C15.32582031 13.50854492 14.65164062 13.01708984 13.95703125 12.51074219 C11.73707787 10.88899749 9.52424638 9.25791468 7.3125 7.625 C6.23222534 6.83851074 6.23222534 6.83851074 5.13012695 6.03613281 C4.46456787 5.54209961 3.79900879 5.04806641 3.11328125 4.5390625 C2.51298096 4.09771973 1.91268066 3.65637695 1.29418945 3.20166016 C0.86710693 2.8051123 0.44002441 2.40856445 0 2 C0 1.34 0 0.68 0 0 Z " fill="#275C7C" transform="translate(68,144)"/>
<path d="M0 0 C32.01 0 64.02 0 97 0 C95.68 0.66 94.36 1.32 93 2 C93 2.66 93 3.32 93 4 C62.64 4 32.28 4 1 4 C0.67 2.68 0.34 1.36 0 0 Z " fill="#0C4165" transform="translate(237,160)"/>
<path d="M0 0 C0.33 0 0.66 0 1 0 C0.88465396 1.56324232 0.75724874 3.12559683 0.625 4.6875 C0.55539063 5.55761719 0.48578125 6.42773438 0.4140625 7.32421875 C-0.01999767 10.12923023 -0.91022219 12.39026892 -2 15 C-9.57102417 15.2472483 -17.14242758 15.46636623 -24.71524906 15.65021229 C-28.2322026 15.73646468 -31.74835447 15.83216227 -35.2644043 15.94995117 C-39.31256285 16.0851417 -43.360766 16.17833152 -47.41015625 16.26953125 C-49.29179222 16.34105156 -49.29179222 16.34105156 -51.21144104 16.41401672 C-58.5167051 16.54022685 -62.63629689 16.15126944 -68 11 C-68 10.67 -68 10.34 -68 10 C-46.55 10 -25.1 10 -3 10 C-2.34 7.03 -1.68 4.06 -1 1 C-0.67 0.67 -0.34 0.34 0 0 Z " fill="#1F5478" transform="translate(200,150)"/>
<path d="M0 0 C0.66 0 1.32 0 2 0 C4.42857143 7.42857143 4.42857143 7.42857143 3 11 C2.505 8.525 2.505 8.525 2 6 C1.34 6 0.68 6 0 6 C-0.11029541 7.30662598 -0.22059082 8.61325195 -0.33422852 9.95947266 C-0.87244621 14.76874033 -2.08619868 19.08448023 -3.65234375 23.6484375 C-3.91253799 24.42764557 -4.17273224 25.20685364 -4.44081116 26.00967407 C-4.98710416 27.63956325 -5.53772626 29.26800743 -6.0925293 30.89501953 C-6.94132963 33.38623994 -7.77537941 35.8820449 -8.60742188 38.37890625 C-9.14237679 39.96903701 -9.67815481 41.55889116 -10.21484375 43.1484375 C-10.46386948 43.89217621 -10.7128952 44.63591492 -10.96946716 45.40219116 C-12.06051398 48.58717301 -13.12116293 51.18174439 -15 54 C-15.33 53.01 -15.66 52.02 -16 51 C-16.99 53.97 -17.98 56.94 -19 60 C-39.79 60 -60.58 60 -82 60 C-82 59.67 -82 59.34 -82 59 C-80.92005013 58.9845388 -80.92005013 58.9845388 -79.81828308 58.96876526 C-73.03499673 58.87080865 -66.25179289 58.76829673 -59.46865368 58.66066074 C-55.9813316 58.60548424 -52.49400105 58.55207274 -49.0065918 58.50268555 C-44.99779153 58.44583745 -40.98914643 58.38132952 -36.98046875 58.31640625 C-35.72727341 58.29969376 -34.47407806 58.28298126 -33.1829071 58.26576233 C-31.44144157 58.2358445 -31.44144157 58.2358445 -29.66479492 58.20532227 C-28.64109299 58.18977798 -27.61739105 58.1742337 -26.56266785 58.15821838 C-23.87992024 58.10284378 -23.87992024 58.10284378 -21 57 C-20.07915053 54.83703526 -20.07915053 54.83703526 -19.5 52.25 C-18.78456678 49.40530126 -18.13806131 47.2179718 -16.5625 44.73046875 C-14.4356933 41.01387404 -13.54539552 37.19349844 -12.5 33.0625 C-11.12537462 27.65711828 -9.55176318 22.99011467 -7 18 C-6.3447724 15.43857053 -6.3447724 15.43857053 -6 12.9375 C-5.30194195 9.08072928 -4.50279184 6.1284898 -2 3 C-1.34 3 -0.68 3 0 3 C0 2.01 0 1.02 0 0 Z " fill="#1F7CB1" transform="translate(216,100)"/>
<path d="M0 0 C3.22032494 2.07020889 6.16818855 4.11040175 9 6.6875 C14.29495659 10.76902903 20.66979088 10.18533849 27.1171875 10.31640625 C27.97434357 10.33718735 28.83149963 10.35796844 29.71463013 10.37937927 C32.43467714 10.44441261 35.15481517 10.50354341 37.875 10.5625 C39.72657166 10.60572924 41.57813434 10.6493449 43.4296875 10.69335938 C47.95303331 10.80004621 52.47647007 10.90144194 57 11 C57.495 13.475 57.495 13.475 58 16 C51.61390655 16.12745713 45.22814471 16.21462474 38.84106445 16.2746582 C36.67134341 16.29970152 34.50170587 16.33374635 32.33227539 16.37719727 C29.20177532 16.43829773 26.07239674 16.46631229 22.94140625 16.48828125 C21.50179283 16.52699089 21.50179283 16.52699089 20.03309631 16.56648254 C13.33651431 16.56923063 8.33652275 15.17130712 3 11 C0.3896307 8.09371171 0.0156442 7.31288398 -0.1875 3.25 C-0.125625 2.1775 -0.06375 1.105 0 0 Z " fill="#2C5773" transform="translate(245,199)"/>
<path d="M0 0 C1.32 0.66 2.64 1.32 4 2 C4 2.99 4 3.98 4 5 C4.7425 5.2475 5.485 5.495 6.25 5.75 C9.21790544 7.09904793 10.75532923 8.68050687 13 11 C13.99 11.33 14.98 11.66 16 12 C16 12.66 16 13.32 16 14 C17.05767578 13.63455078 17.05767578 13.63455078 18.13671875 13.26171875 C22.15818504 12.89413588 23.65244546 14.39698308 26.8125 16.8125 C27.78832031 17.54082031 28.76414063 18.26914062 29.76953125 19.01953125 C30.50558594 19.67308594 31.24164063 20.32664062 32 21 C32 21.66 32 22.32 32 23 C32.721875 23.268125 33.44375 23.53625 34.1875 23.8125 C36.99766383 24.99901362 39.48416557 26.27485639 42 28 C42 28.66 42 29.32 42 30 C42.94875 30.268125 43.8975 30.53625 44.875 30.8125 C48 32 48 32 50 35 C50.99 35.33 51.98 35.66 53 36 C53 36.66 53 37.32 53 38 C54.65 38.66 56.3 39.32 58 40 C57.34 40.99 56.68 41.98 56 43 C52.40115258 43 51.2523559 42.72346072 48.40234375 40.61328125 C47.69271484 40.09378906 46.98308594 39.57429688 46.25195312 39.0390625 C45.48818359 38.46929687 44.72441406 37.89953125 43.9375 37.3125 C42.30091812 36.11049071 40.66419551 34.90867301 39.02734375 33.70703125 C38.19058105 33.08908691 37.35381836 32.47114258 36.49169922 31.83447266 C32.68089967 29.02883403 28.84018302 26.26520295 25 23.5 C23.52326951 22.4338264 22.04670823 21.36741838 20.5703125 20.30078125 C19.83071289 19.76662598 19.09111328 19.2324707 18.32910156 18.68212891 C11.55273438 13.78808594 4.77636719 8.89404297 -2 4 C-1.34 3.67 -0.68 3.34 0 3 C0 2.01 0 1.02 0 0 Z " fill="#274F6C" transform="translate(225,255)"/>
<path d="M0 0 C20.46 0 40.92 0 62 0 C62.495 0.99 62.495 0.99 63 2 C60.69 2 58.38 2 56 2 C57.32 2.66 58.64 3.32 60 4 C56.00594243 4.74680799 52.23935283 5.12271347 48.17822266 5.11352539 C47.05751373 5.11344986 45.93680481 5.11337433 44.78213501 5.11329651 C43.58817108 5.10813522 42.39420715 5.10297394 41.1640625 5.09765625 C39.92957367 5.0962413 38.69508484 5.09482635 37.42318726 5.09336853 C33.49043325 5.08778272 29.55773672 5.07523275 25.625 5.0625 C22.95442792 5.05691912 20.28385637 5.05292058 17.61328125 5.04882812 C11.07550131 5.03781792 4.53775476 5.02109385 -2 5 C-1.34 3.35 -0.68 1.7 0 0 Z " fill="#1A557B" transform="translate(245,234)"/>
<path d="M0 0 C0.99 0 1.98 0 3 0 C3.33 1.65 3.66 3.3 4 5 C40.96 5 77.92 5 116 5 C116 5.99 116 6.98 116 8 C115.34 8.33 114.68 8.66 114 9 C114 8.34 114 7.68 114 7 C113.42462557 7.00276538 112.84925114 7.00553076 112.25644112 7.00837994 C98.26921407 7.07457537 84.28201439 7.12405775 70.29466438 7.15543652 C63.53053291 7.17091863 56.76650586 7.19203361 50.00244141 7.22631836 C43.47967797 7.25936433 36.95698246 7.2768333 30.43413925 7.28463173 C27.94054324 7.29019207 25.44695344 7.30104939 22.95340347 7.31719017 C19.47156988 7.33883991 15.99019041 7.34197212 12.50830078 7.34057617 C11.46820862 7.351362 10.42811646 7.36214783 9.35650635 7.3732605 C8.41137177 7.36913651 7.46623718 7.36501251 6.49246216 7.36076355 C5.66837923 7.36352893 4.8442963 7.36629431 3.99524117 7.36914349 C3.33681158 7.24732614 2.678382 7.12550879 2 7 C0 4 0 4 0 0 Z " fill="#89B1C0" transform="translate(249,133)"/>
<path d="M0 0 C1 4 1 4 -2 10 C-38.63 10 -75.26 10 -113 10 C-113 10.66 -113 11.32 -113 12 C-112.01 12.33 -111.02 12.66 -110 13 C-110 13.33 -110 13.66 -110 14 C-111.98 14.33 -113.96 14.66 -116 15 C-116 14.34 -116 13.68 -116 13 C-115.34 13 -114.68 13 -114 13 C-114.185625 12.360625 -114.37125 11.72125 -114.5625 11.0625 C-114.706875 10.381875 -114.85125 9.70125 -115 9 C-114 8 -114 8 -112.12780666 7.87695217 C-110.89029958 7.87833486 -110.89029958 7.87833486 -109.62779236 7.87974548 C-108.68403244 7.87837082 -107.74027252 7.87699615 -106.76791382 7.87557983 C-105.72422638 7.87917511 -104.68053894 7.88277039 -103.60522461 7.88647461 C-102.51267868 7.88632858 -101.42013275 7.88618256 -100.29447937 7.8860321 C-96.66374767 7.88673178 -93.03306654 7.89452671 -89.40234375 7.90234375 C-86.89270557 7.90420774 -84.38306702 7.90563173 -81.87342834 7.90663147 C-75.93065407 7.91006652 -69.98789616 7.91795727 -64.04513031 7.92798096 C-56.61798075 7.94023747 -49.19082895 7.94562208 -41.76367188 7.95117188 C-28.50910527 7.96191189 -15.25455379 7.97879918 -2 8 C-1.34 5.36 -0.68 2.72 0 0 Z " fill="#95C5D6" transform="translate(183,130)"/>
<path d="M0 0 C0.79719955 0.00222061 1.59439911 0.00444122 2.41575623 0.00672913 C3.31661453 0.00680466 4.21747284 0.00688019 5.14562988 0.00695801 C6.12478867 0.01211929 7.10394745 0.01728058 8.11277771 0.02259827 C9.11018478 0.02401321 10.10759186 0.02542816 11.13522339 0.02688599 C14.3348027 0.03250337 17.53431315 0.04505881 20.73387146 0.05775452 C22.89728191 0.06276728 25.06069345 0.06733057 27.22410583 0.07142639 C32.53988471 0.08247845 37.85562317 0.09923348 43.17137146 0.12025452 C43.66637146 2.59525452 43.66637146 2.59525452 44.17137146 5.12025452 C28.33137146 5.45025452 12.49137146 5.78025452 -3.82862854 6.12025452 C-2.63929072 0.17356539 -2.63929072 0.17356539 0 0 Z " fill="#1B5577" transform="translate(265.82862854003906,188.87974548339844)"/>
<path d="M0 0 C1.98 0 3.96 0 6 0 C1.97024067 4.30740023 -2.44410637 7.65968141 -7.25 11.0625 C-8.02980225 11.6196167 -8.80960449 12.1767334 -9.61303711 12.75073242 C-12.07207931 14.50514402 -14.53602403 16.25252677 -17 18 C-18.64211984 19.17160488 -20.28405008 20.34347555 -21.92578125 21.515625 C-23.47099919 22.6150824 -25.01655901 23.71405951 -26.5625 24.8125 C-27.66029785 25.59475952 -27.66029785 25.59475952 -28.78027344 26.39282227 C-33.88355797 30 -33.88355797 30 -35 30 C-35.3125 27.8125 -35.3125 27.8125 -35 25 C-30.96927699 20.33369392 -26.01484522 16.97475689 -21 13.4375 C-19.41582799 12.31237784 -17.83247231 11.18610527 -16.25 10.05859375 C-15.50903076 9.53281738 -14.76806152 9.00704102 -14.00463867 8.46533203 C-12.34759295 7.25408025 -10.75205196 5.95918027 -9.17578125 4.64453125 C-6.2364081 2.42285064 -3.6143212 2.28347617 0 2 C0 1.34 0 0.68 0 0 Z " fill="#2B5770" transform="translate(159,291)"/>
<path d="M0 0 C2 2 2 2 2 5 C34.67 5 67.34 5 101 5 C101 5.66 101 6.32 101 7 C67.67 7 34.34 7 0 7 C0 4.69 0 2.38 0 0 Z " fill="#4A687A" transform="translate(236,159)"/>
<path d="M0 0 C3.875 0.875 3.875 0.875 5 2 C5.54441698 8.88667612 3.92343997 14.36014794 1.71875 20.84375 C1.38580933 21.85344849 1.05286865 22.86314697 0.70983887 23.90344238 C-0.34902869 27.10609804 -1.42422199 30.30298991 -2.5 33.5 C-3.2237437 35.67932666 -3.9464116 37.85901091 -4.66796875 40.0390625 C-6.43288127 45.36357713 -8.21120526 50.68346429 -10 56 C-10.66 56 -11.32 56 -12 56 C-12.33 56.66 -12.66 57.32 -13 58 C-13.41791565 50.72517194 -12.4941078 44.82985639 -10 38 C-9.66355469 37.07058594 -9.32710937 36.14117187 -8.98046875 35.18359375 C-6.31123793 28.15561896 -6.31123793 28.15561896 -4 27 C-0.11049597 18.09956561 0.51774553 9.59267411 0 0 Z " fill="#307093" transform="translate(180,196)"/>
<path d="M0 0 C0.33 0 0.66 0 1 0 C1.31986304 3.99828799 1.22229924 6.52761413 -0.5 10.1875 C-5.11961837 15.38457067 -10.24118695 17.0280614 -17 18 C-18.98415599 18.10813075 -20.97089969 18.17468275 -22.95776367 18.20532227 C-24.6843647 18.2352401 -24.6843647 18.2352401 -26.44584656 18.26576233 C-27.67414688 18.28247482 -28.9024472 18.29918732 -30.16796875 18.31640625 C-31.43973465 18.33718735 -32.71150055 18.35796844 -34.02180481 18.37937927 C-37.38907696 18.43356069 -40.75636118 18.48383436 -44.12371826 18.53222656 C-47.55323615 18.58253387 -50.9826661 18.63823877 -54.41210938 18.69335938 C-73.75929758 19 -73.75929758 19 -78 19 C-78.33 18.34 -78.66 17.68 -79 17 C-78.34 16.34 -77.68 15.68 -77 15 C-77 15.66 -77 16.32 -77 17 C-69.73279988 16.93884772 -62.46595347 16.86178518 -55.19914436 16.76428509 C-51.82500715 16.71951634 -48.45099248 16.68027528 -45.07666016 16.65356445 C-41.19923635 16.62015064 -37.32246567 16.5678407 -33.4453125 16.51171875 C-31.6233989 16.50213387 -31.6233989 16.50213387 -29.76467896 16.49235535 C-28.64366791 16.47256119 -27.52265686 16.45276703 -26.36767578 16.43237305 C-25.37728302 16.42126999 -24.38689026 16.41016693 -23.3664856 16.39872742 C-22.58554535 16.26714737 -21.8046051 16.13556732 -21 16 C-20.34 15.01 -19.68 14.02 -19 13 C-15.875 12.8125 -15.875 12.8125 -13 13 C-13.99 12.01 -13.99 12.01 -15 11 C-14.32453125 10.76925781 -13.6490625 10.53851563 -12.953125 10.30078125 C-6.73418409 8.02709332 -3.05739838 6.11479677 0 0 Z " fill="#1F5D83" transform="translate(320,222)"/>
<path d="M0 0 C17.82 0 35.64 0 54 0 C52.875 10.125 52.875 10.125 49.4375 15.0625 C48.79683594 16.00222656 48.15617187 16.94195312 47.49609375 17.91015625 C47.00238281 18.59980469 46.50867188 19.28945312 46 20 C44 17 44 17 44 15 C31.13 15 18.26 15 5 15 C5 14.67 5 14.34 5 14 C18.2 14 31.4 14 45 14 C45.66 12.35 46.32 10.7 47 9 C47.66 8.34 48.32 7.68 49 7 C49.33 5.02 49.66 3.04 50 1 C33.5 1 17 1 0 1 C0 0.67 0 0.34 0 0 Z " fill="#2C76A0" transform="translate(265,174)"/>
<path d="M0 0 C0.33 0 0.66 0 1 0 C1 2.31 1 4.62 1 7 C-1.46423896 8.23211948 -3.15234663 8.15779908 -5.90869141 8.20532227 C-6.92959869 8.22526749 -7.95050598 8.24521271 -9.00234985 8.26576233 C-10.10759003 8.28247482 -11.2128302 8.29918732 -12.3515625 8.31640625 C-13.4807309 8.33718735 -14.60989929 8.35796844 -15.77328491 8.37937927 C-19.39045972 8.44491335 -23.00770881 8.50377774 -26.625 8.5625 C-29.07292444 8.60568154 -31.52084128 8.64929571 -33.96875 8.69335938 C-39.9790875 8.80059867 -45.98949935 8.90235787 -52 9 C-51.67 8.01 -51.34 7.02 -51 6 C-35.49 5.67 -19.98 5.34 -4 5 C-15.88 4.67 -27.76 4.34 -40 4 C-40 3.67 -40 3.34 -40 3 C-26.8 3 -13.6 3 0 3 C0 2.01 0 1.02 0 0 Z " fill="#7FB7CB" transform="translate(303,212)"/>
<path d="M0 0 C1.94524818 0.00636726 1.94524818 0.00636726 3.92979431 0.01286316 C7.34770631 0.02421977 10.76522492 0.0536052 14.1829834 0.0869751 C17.68248171 0.11787642 21.18204469 0.13141098 24.68164062 0.14648438 C31.52620143 0.17848584 38.37050361 0.22956816 45.21484375 0.29296875 C44.88484375 0.95296875 44.55484375 1.61296875 44.21484375 2.29296875 C43.54943069 2.29074814 42.88401764 2.28852753 42.19844055 2.28623962 C35.27170346 2.26411301 28.34497641 2.24903127 21.41821289 2.23803711 C18.8332478 2.23300894 16.24828556 2.22618556 13.66333008 2.2175293 C9.94742125 2.20539746 6.23155003 2.19972525 2.515625 2.1953125 C1.36024734 2.19015121 0.20486969 2.18498993 -0.98551941 2.17967224 C-2.06626236 2.17959671 -3.14700531 2.17952118 -4.26049805 2.17944336 C-5.68279976 2.17611244 -5.68279976 2.17611244 -7.13383484 2.17271423 C-9.80840924 2.29402342 -12.20489996 2.57388792 -14.78515625 3.29296875 C-15.11515625 3.95296875 -15.44515625 4.61296875 -15.78515625 5.29296875 C-16.87828125 5.58171875 -17.97140625 5.87046875 -19.09765625 6.16796875 C-23.05948198 7.37666134 -24.29670302 8.0738633 -26.78515625 11.29296875 C-27.58650479 14.71406623 -27.58650479 14.71406623 -27.84765625 18.41796875 C-28.1953125 22.17578125 -28.1953125 22.17578125 -28.78515625 25.29296875 C-29.77515625 25.95296875 -30.76515625 26.61296875 -31.78515625 27.29296875 C-32.12049256 20.53656317 -32.36848222 14.2516055 -28.78515625 8.29296875 C-20.92992692 -0.12334839 -10.9064659 -0.13573986 0 0 Z " fill="#85BED5" transform="translate(274.78515625,172.70703125)"/>
<path d="M0 0 C6.19826611 3.11410471 11.50029755 6.80104066 16.8359375 11.23046875 C19.07754682 13.12195412 19.07754682 13.12195412 22 15 C22 16.32 22 17.64 22 19 C19.44017296 19.40239705 17.62742507 19.36270683 15.35546875 18.04931641 C13.5192575 16.69132835 11.75537411 15.27343636 10 13.8125 C9.39671875 13.32974609 8.7934375 12.84699219 8.171875 12.34960938 C4.55891046 9.42389353 1.22806408 6.34422548 -2 3 C-1.34 2.67 -0.68 2.34 0 2 C0 1.34 0 0.68 0 0 Z " fill="#135680" transform="translate(137,191)"/>
<path d="M0 0 C0.625 1.8125 0.625 1.8125 1 4 C0.34 4.99 -0.32 5.98 -1 7 C-2.93277168 7.36914349 -2.93277168 7.36914349 -5.34060669 7.36076355 C-6.25208466 7.36488754 -7.16356262 7.36901154 -8.10266113 7.3732605 C-9.10535034 7.36247467 -10.10803955 7.35168884 -11.14111328 7.34057617 C-12.19479095 7.34101425 -13.24846863 7.34145233 -14.33407593 7.34190369 C-17.82967423 7.33980751 -21.32479761 7.31643703 -24.8203125 7.29296875 C-27.23883807 7.28737576 -29.65736704 7.28310426 -32.07589722 7.28010559 C-38.45136852 7.26863353 -44.82663584 7.23914592 -51.20202637 7.20599365 C-57.70366658 7.17534367 -64.20533966 7.16161111 -70.70703125 7.14648438 C-83.47144136 7.11427859 -96.23570985 7.06362775 -109 7 C-108.67 7.99 -108.34 8.98 -108 10 C-110.475 9.01 -110.475 9.01 -113 8 C-113 7.34 -113 6.68 -113 6 C-58.055 5.505 -58.055 5.505 -2 5 C-1.34 3.35 -0.68 1.7 0 0 Z " fill="#237FAE" transform="translate(183,134)"/>
<path d="M0 0 C0.99 0.495 0.99 0.495 2 1 C1.01 1.33 0.02 1.66 -1 2 C-1.268125 2.639375 -1.53625 3.27875 -1.8125 3.9375 C-3 6 -3 6 -5.706604 7.11769104 C-8.9537585 7.98761179 -11.53375707 8.22491567 -14.88183594 8.17944336 C-16.01611023 8.16960922 -17.15038452 8.15977509 -18.31903076 8.14964294 C-20.13337616 8.12004234 -20.13337616 8.12004234 -21.984375 8.08984375 C-24.55338364 8.06943659 -27.12239413 8.04926116 -29.69140625 8.02929688 C-33.73625913 7.98775925 -37.78097624 7.93725128 -41.82568359 7.88354492 C-45.73265879 7.83278145 -49.63967109 7.80548114 -53.546875 7.77734375 C-54.76453552 7.75558578 -55.98219604 7.73382782 -57.23675537 7.71141052 C-58.35842102 7.70472855 -59.48008667 7.69804657 -60.63574219 7.69116211 C-61.62580261 7.67846786 -62.61586304 7.66577362 -63.63592529 7.6526947 C-64.80614227 7.82461082 -64.80614227 7.82461082 -66 8 C-66.66 8.99 -67.32 9.98 -68 11 C-68.33 8.03 -68.66 5.06 -69 2 C-68.34 2 -67.68 2 -67 2 C-67 2.99 -67 3.98 -67 5 C-56.99559818 5.98446667 -47.0608434 6.18625913 -37.01586914 6.18530273 C-34.43814816 6.18749945 -31.86084951 6.2057587 -29.28320312 6.22460938 C-20.32744463 6.2539831 -11.7919871 5.95119543 -3 4 C-2.67 3.01 -2.34 2.02 -2 1 C-1.34 0.67 -0.68 0.34 0 0 Z " fill="#15679A" transform="translate(303,152)"/>
<path d="M0 0 C-0.33 0.99 -0.66 1.98 -1 3 C-1 3.66 -1 4.32 -1 5 C-3.31 5 -5.62 5 -8 5 C-7.67 6.32 -7.34 7.64 -7 9 C-8.90812659 10.51210032 -10.82519636 12.00939625 -12.75 13.5 C-13.28882813 13.92925781 -13.82765625 14.35851562 -14.3828125 14.80078125 C-17.63522928 17.29958927 -18.75396057 18 -23 18 C-21.72207733 11.97173031 -18.94669091 9.95015744 -14.0625 6.75 C-13.42892578 6.316875 -12.79535156 5.88375 -12.14257812 5.4375 C-10.43864708 4.27646181 -8.7199885 3.13711487 -7 2 C-4 0 -4 0 0 0 Z " fill="#0D3B5B" transform="translate(219,249)"/>
<path d="M0 0 C1.32 0.66 2.64 1.32 4 2 C4 2.99 4 3.98 4 5 C4.7425 5.2475 5.485 5.495 6.25 5.75 C9.21790544 7.09904793 10.75532923 8.68050687 13 11 C13.99 11.33 14.98 11.66 16 12 C16 12.66 16 13.32 16 14 C16.763125 13.773125 17.52625 13.54625 18.3125 13.3125 C21 13 21 13 22.75 14.125 C24.26587408 16.39881113 24.58724471 18.31709062 25 21 C25.33 21.66 25.66 22.32 26 23 C20.96397758 21.40297344 17.24644143 18.37295052 13.125 15.1875 C11.75319542 14.13854924 10.38080416 13.09036525 9.0078125 12.04296875 C8.34426758 11.53556152 7.68072266 11.0281543 6.99707031 10.50537109 C4.03990805 8.27629255 1.02473813 6.13627067 -2 4 C-1.34 3.67 -0.68 3.34 0 3 C0 2.01 0 1.02 0 0 Z " fill="#3D617A" transform="translate(225,255)"/>
<path d="M0 0 C1.87365234 -0.00386719 1.87365234 -0.00386719 3.78515625 -0.0078125 C6.9375 0.125 6.9375 0.125 8.9375 1.125 C8.9375 1.785 8.9375 2.445 8.9375 3.125 C21.4775 2.795 34.0175 2.465 46.9375 2.125 C46.9375 2.785 46.9375 3.445 46.9375 4.125 C28.1275 4.125 9.3175 4.125 -10.0625 4.125 C-10.0625 3.135 -10.0625 2.145 -10.0625 1.125 C-6.54512679 -0.04745774 -3.7049868 -0.00766285 0 0 Z " fill="#204C67" transform="translate(150.0625,160.875)"/>
<path d="M0 0 C1.65 0 3.3 0 5 0 C5 0.66 5 1.32 5 2 C5.62782883 1.97272324 6.25565765 1.94544647 6.9025116 1.91734314 C13.43967968 1.63451279 19.97716285 1.36010528 26.51489258 1.09057617 C28.95443668 0.98889472 31.3938924 0.88506923 33.83325195 0.77905273 C37.34044681 0.62700052 40.84788767 0.48267292 44.35546875 0.33984375 C45.44522507 0.29093491 46.53498138 0.24202606 47.65776062 0.19163513 C49.18878166 0.13145958 49.18878166 0.13145958 50.75073242 0.07006836 C51.64563889 0.03231796 52.54054535 -0.00543243 53.46257019 -0.04432678 C56.09012188 0.00157435 58.44470754 0.40659136 61 1 C61 1.33 61 1.66 61 2 C57.00594243 2.74680799 53.23935283 3.12271347 49.17822266 3.11352539 C48.05751373 3.11344986 46.93680481 3.11337433 45.78213501 3.11329651 C44.58817108 3.10813522 43.39420715 3.10297394 42.1640625 3.09765625 C40.92957367 3.0962413 39.69508484 3.09482635 38.42318726 3.09336853 C34.49043325 3.08778272 30.55773672 3.07523275 26.625 3.0625 C23.95442792 3.05691912 21.28385637 3.05292058 18.61328125 3.04882812 C12.07550131 3.03781792 5.53775476 3.02109385 -1 3 C-0.67 2.01 -0.34 1.02 0 0 Z " fill="#255069" transform="translate(244,236)"/>
<path d="M0 0 C0.66 0 1.32 0 2 0 C4.42857143 7.42857143 4.42857143 7.42857143 3 11 C2.67 9.35 2.34 7.7 2 6 C1.34 6 0.68 6 0 6 C-0.1546875 7.9490625 -0.1546875 7.9490625 -0.3125 9.9375 C-0.848308 14.90160353 -2.24930225 19.34248334 -4 24 C-4.66 24 -5.32 24 -6 24 C-6.33 24.66 -6.66 25.32 -7 26 C-6.58997722 10.25512528 -6.58997722 10.25512528 -2 3 C-1.34 3 -0.68 3 0 3 C0 2.01 0 1.02 0 0 Z " fill="#1F6F9C" transform="translate(216,100)"/>
<path d="M0 0 C0.66 0 1.32 0 2 0 C1.67 1.32 1.34 2.64 1 4 C1.99 4.33 2.98 4.66 4 5 C3.03900391 5.67095703 3.03900391 5.67095703 2.05859375 6.35546875 C1.19363281 6.96003906 0.32867187 7.56460937 -0.5625 8.1875 C-1.92375 9.13882812 -1.92375 9.13882812 -3.3125 10.109375 C-5.57576372 11.70155471 -7.8222222 13.3132986 -10.0625 14.9375 C-13 17 -13 17 -14 17 C-14.33 15.02 -14.66 13.04 -15 11 C-13.50146484 9.93458984 -13.50146484 9.93458984 -11.97265625 8.84765625 C-10.66923542 7.91932055 -9.36585193 6.99093243 -8.0625 6.0625 C-7.40314453 5.59392578 -6.74378906 5.12535156 -6.06445312 4.64257812 C-2.89795165 2.48544482 -2.89795165 2.48544482 0 0 Z " fill="#335B74" transform="translate(195,263)"/>
<path d="M0 0 C1.20043186 4.1327845 1.04361738 7.84122399 0 12 C-1.0047381 13.72689362 -2.01065185 15.45426608 -3.08203125 17.140625 C-4.48141069 19.97511271 -4.63009032 22.76402436 -4.82421875 25.88671875 C-5.09217451 29.10814242 -5.9794944 31.93848321 -7 35 C-7.99 35 -8.98 35 -10 35 C-10.33548767 36.79126452 -10.66832355 38.58302587 -11 40.375 C-11.185625 41.37273437 -11.37125 42.37046875 -11.5625 43.3984375 C-12.05527983 45.88903545 -12.05527983 45.88903545 -12 48 C-13.485 48.495 -13.485 48.495 -15 49 C-13.67786336 42.63756609 -12.00059854 36.53763723 -9.9609375 30.37109375 C-9.67521881 29.49598648 -9.38950012 28.62087921 -9.09512329 27.71925354 C-8.19237753 24.9573531 -7.28379649 22.19741462 -6.375 19.4375 C-5.75742376 17.55155955 -5.14023261 15.66549294 -4.5234375 13.77929688 C-3.0200699 9.18472855 -1.51147024 4.59190886 0 0 Z " fill="#4E94B6" transform="translate(150,231)"/>
<path d="M0 0 C2.09375 0.9453125 2.09375 0.9453125 3.09375 2.9453125 C1.77375 2.6153125 0.45375 2.2853125 -0.90625 1.9453125 C-1.23625 3.5953125 -1.56625 5.2453125 -1.90625 6.9453125 C-3.2365625 7.3165625 -3.2365625 7.3165625 -4.59375 7.6953125 C-8.05808662 9.00260934 -10.09982464 10.57064489 -12.90625 12.9453125 C-16.43401461 15.41474773 -18.58476048 16.31572589 -22.90625 15.9453125 C-19.03271801 11.87810391 -14.89984162 8.43383257 -10.40625 5.0703125 C-9.75527344 4.55984375 -9.10429687 4.049375 -8.43359375 3.5234375 C-3.62846152 -0.0682775 -3.62846152 -0.0682775 0 0 Z " fill="#2E7BA5" transform="translate(217.90625,222.0546875)"/>
<path d="M0 0 C0.66 0 1.32 0 2 0 C6.00304035 10.60805692 9.84822361 21.2655968 13.5 32 C13.86222656 33.04414062 14.22445312 34.08828125 14.59765625 35.1640625 C14.92636719 36.14117187 15.25507813 37.11828125 15.59375 38.125 C15.88958984 38.99382812 16.18542969 39.86265625 16.49023438 40.7578125 C17 43 17 43 16 46 C14.68 45.34 13.36 44.68 12 44 C12.02320313 43.38511719 12.04640625 42.77023438 12.0703125 42.13671875 C12.08835938 41.32847656 12.10640625 40.52023438 12.125 39.6875 C12.14820313 38.88699219 12.17140625 38.08648437 12.1953125 37.26171875 C12.15817322 34.71611424 12.15817322 34.71611424 10 32 C9.835 31.13375 9.67 30.2675 9.5 29.375 C9.335 28.59125 9.17 27.8075 9 27 C8.34 26.67 7.68 26.34 7 26 C5.66734873 22.0853369 4.82879576 18.1844676 4.0625 14.125 C3.12829748 9.25219965 1.68825752 4.65959076 0 0 Z " fill="#82BDD1" transform="translate(216,34)"/>
<path d="M0 0 C13.86 0 27.72 0 42 0 C42.495 2.475 42.495 2.475 43 5 C42.34 4.34 41.68 3.68 41 3 C38.17775742 2.87611141 35.44365297 2.86635443 32.625 2.9375 C25.38314538 3.02572137 18.17330123 2.94789713 10.9375 2.625 C10.07527832 2.59398193 9.21305664 2.56296387 8.32470703 2.53100586 C2.23711802 2.23711802 2.23711802 2.23711802 0 0 Z " fill="#15537D" transform="translate(260,210)"/>
<path d="M0 0 C0.33 0.66 0.66 1.32 1 2 C1.66 2 2.32 2 3 2 C3 1.34 3 0.68 3 0 C3.66 0 4.32 0 5 0 C5.33 0.99 5.66 1.98 6 3 C3.58606009 4.79544286 1.16902994 6.58643813 -1.25 8.375 C-1.93191406 8.88289063 -2.61382812 9.39078125 -3.31640625 9.9140625 C-3.98027344 10.40390625 -4.64414063 10.89375 -5.328125 11.3984375 C-5.9355957 11.84880371 -6.54306641 12.29916992 -7.16894531 12.76318359 C-9.04660725 14.03148164 -10.95363985 15.03212696 -13 16 C-13.3125 13.8125 -13.3125 13.8125 -13 11 C-9.36399321 6.56861672 -4.62323382 3.33836487 0 0 Z " fill="#3B6881" transform="translate(137,305)"/>
<path d="M0 0 C10.60823891 2.65205973 18.48741249 9.24064866 26 17 C24.35 16.67 22.7 16.34 21 16 C21 15.34 21 14.68 21 14 C20.030625 13.731875 19.06125 13.46375 18.0625 13.1875 C16.5465625 12.5996875 16.5465625 12.5996875 15 12 C14.67 11.01 14.34 10.02 14 9 C13.34 9 12.68 9 12 9 C12 8.34 12 7.68 12 7 C11.34 7 10.68 7 10 7 C10 7.66 10 8.32 10 9 C6.84669446 8.39305845 4.81111133 7.3583335 2.25 5.4375 C1.63640625 4.98246094 1.0228125 4.52742187 0.390625 4.05859375 C-0.06828125 3.70925781 -0.5271875 3.35992187 -1 3 C-0.67 2.01 -0.34 1.02 0 0 Z " fill="#2A6183" transform="translate(96,163)"/>
<path d="M0 0 C0.66 0.33 1.32 0.66 2 1 C1.67 1.66 1.34 2.32 1 3 C2.32 3.33 3.64 3.66 5 4 C-4.11659193 11.78744395 -4.11659193 11.78744395 -8.734375 12.30859375 C-11.1875 12 -11.1875 12 -15 11 C-15 10.34 -15 9.68 -15 9 C-14.33613281 8.68546875 -13.67226563 8.3709375 -12.98828125 8.046875 C-8.24303558 5.74698951 -3.95396814 3.55857132 0 0 Z " fill="#1E4C6B" transform="translate(345,153)"/>
<path d="M0 0 C3.22032494 2.07020889 6.16818855 4.11040175 9 6.6875 C12.17917137 9.13811126 14.05214418 9.7180103 18 10 C18 10.33 18 10.66 18 11 C15.36 11.33 12.72 11.66 10 12 C10 12.66 10 13.32 10 14 C5.55568412 12.60321501 2.86808886 10.68754281 0 7 C-0.3125 3.1875 -0.3125 3.1875 0 0 Z " fill="#225D80" transform="translate(245,199)"/>
<path d="M0 0 C0.66 0.99 1.32 1.98 2 3 C2.99 3.33 3.98 3.66 5 4 C5 4.66 5 5.32 5 6 C7.475 6.99 7.475 6.99 10 8 C9.01 9.485 9.01 9.485 8 11 C3.37966664 11 1.32793298 9.25768948 -2.1875 6.5 C-3.02571289 5.85611328 -3.02571289 5.85611328 -3.88085938 5.19921875 C-5.25885847 4.13921945 -6.63009407 3.07043812 -8 2 C-4.91190305 0.23537317 -3.76687864 0 0 0 Z " fill="#335C77" transform="translate(273,287)"/>
<path d="M0 0 C0.33 0 0.66 0 1 0 C2.6199221 18.38237754 2.6199221 18.38237754 -0.76953125 23.859375 C-3.40013277 25.9162589 -6.05084802 27.4340786 -9 29 C-10.81052998 30.2107256 -12.5808156 31.46900596 -14.3527832 32.73535156 C-16.87289283 34.53369401 -19.43651316 36.26422208 -22 38 C-22 35 -22 35 -20.64453125 33.5 C-11.484375 26 -11.484375 26 -7 26 C-6.7525 25.401875 -6.505 24.80375 -6.25 24.1875 C-5 22 -5 22 -2.96875 20.96875 C0.28275318 17.71724682 -0.32110792 13.73088778 -0.25 9.3125 C-0.22035156 8.41982422 -0.19070312 7.52714844 -0.16015625 6.60742188 C-0.08948573 4.40485723 -0.03678061 2.20334869 0 0 Z " fill="#156DA3" transform="translate(216,227)"/>
<path d="M0 0 C0.66 0.33 1.32 0.66 2 1 C1.1875 2.9375 1.1875 2.9375 0 5 C-0.99 5.33 -1.98 5.66 -3 6 C-3.61875 6.61875 -4.2375 7.2375 -4.875 7.875 C-7.10539764 10.10539764 -9.2974521 11.39134054 -12 13 C-13.00873849 13.88598195 -14.00841508 14.78236095 -15 15.6875 C-18 18 -18 18 -20.875 18.3125 C-21.57625 18.209375 -22.2775 18.10625 -23 18 C-16.26826005 10.8475263 -8.0408225 5.56925821 0 0 Z " fill="#4C94B3" transform="translate(193,238)"/>
<path d="M0 0 C18.81 0 37.62 0 57 0 C53.37408185 1.81295907 52.41051342 2.24880037 48.67797852 2.21118164 C47.41130089 2.20611351 47.41130089 2.20611351 46.11903381 2.20094299 C45.21479172 2.18748337 44.31054962 2.17402374 43.37890625 2.16015625 C42.44199448 2.15495468 41.5050827 2.14975311 40.53977966 2.14439392 C37.54719482 2.12659491 34.55495355 2.09543694 31.5625 2.0625 C28.57365023 2.0348366 25.58485105 2.010115 22.59593201 1.99131775 C20.73721402 1.97911291 18.87852149 1.96156096 17.01991272 1.93800354 C12.8742042 1.90606024 9.04249307 1.93442744 5 3 C5.33 3.66 5.66 4.32 6 5 C3.5625 4.1875 3.5625 4.1875 1 3 C0.67 2.01 0.34 1.02 0 0 Z " fill="#7B9AA7" transform="translate(140,165)"/>
<path d="M0 0 C0.33 0 0.66 0 1 0 C0.22095672 10.55808656 0.22095672 10.55808656 -2 15 C-2.495 14.01 -2.495 14.01 -3 13 C-3.66 13 -4.32 13 -5 13 C-5 12.34 -5 11.68 -5 11 C-17.21 11 -29.42 11 -42 11 C-42 10.67 -42 10.34 -42 10 C-29.13 10 -16.26 10 -3 10 C-2.34 7.03 -1.68 4.06 -1 1 C-0.67 0.67 -0.34 0.34 0 0 Z " fill="#115F8E" transform="translate(200,150)"/>
<path d="M0 0 C0 0.33 0 0.66 0 1 C-1.6396875 1.37125 -1.6396875 1.37125 -3.3125 1.75 C-7.15281101 3.05180034 -7.92486999 3.72347893 -10 7 C-10.66 7 -11.32 7 -12 7 C-12 7.66 -12 8.32 -12 9 C-12.66 9 -13.32 9 -14 9 C-14.33 9.99 -14.66 10.98 -15 12 C-12.36 12.33 -9.72 12.66 -7 13 C-7 13.33 -7 13.66 -7 14 C-7.62648437 14.04898438 -8.25296875 14.09796875 -8.8984375 14.1484375 C-9.71570313 14.22320312 -10.53296875 14.29796875 -11.375 14.375 C-12.18710938 14.44460937 -12.99921875 14.51421875 -13.8359375 14.5859375 C-16.20334191 14.82892588 -16.20334191 14.82892588 -18 17 C-18.87056734 14.58713125 -19.18561853 13.44460058 -18.1796875 11.03515625 C-12.92700765 3.09323012 -9.94659918 -0.97515678 0 0 Z " fill="#2C8AB5" transform="translate(261,220)"/>
<path d="M0 0 C16.03558345 -0.12488772 31.98809891 0.10153661 48 1 C48 1.33 48 1.66 48 2 C34.8 2 21.6 2 8 2 C7.67 3.32 7.34 4.64 7 6 C5.83054208 5.19152271 4.66449539 4.37810888 3.5 3.5625 C2.8503125 3.11003906 2.200625 2.65757812 1.53125 2.19140625 C1.0259375 1.79824219 0.520625 1.40507812 0 1 C0 0.67 0 0.34 0 0 Z " fill="#145883" transform="translate(132,160)"/>
<path d="M0 0 C7.6346038 3.69707192 13.83965148 8.08329639 20.17578125 13.6328125 C23.01895198 16.01588507 25.88199287 18.00115939 29 20 C26.16032769 20 23.76264289 19.59732819 21 19 C21 18.34 21 17.68 21 17 C20.34 17 19.68 17 19 17 C19 16.34 19 15.68 19 15 C18.01 15 17.02 15 16 15 C16 14.34 16 13.68 16 13 C15.38125 12.9175 14.7625 12.835 14.125 12.75 C13.42375 12.5025 12.7225 12.255 12 12 C11.731875 11.38125 11.46375 10.7625 11.1875 10.125 C9.35551944 6.846719 6.39271289 6.36898941 3 5 C1.0625 3.4375 1.0625 3.4375 0 2 C0 1.34 0 0.68 0 0 Z " fill="#76B4CC" transform="translate(148,172)"/>
<path d="M0 0 C18.48 0 36.96 0 56 0 C56 1.98 56 3.96 56 6 C55.01 6.66 54.02 7.32 53 8 C53.33 5.69 53.66 3.38 54 1 C36.18 1 18.36 1 0 1 C0 0.67 0 0.34 0 0 Z " fill="#197FB3" transform="translate(259,175)"/>
<path d="M0 0 C2.07768497 7.114497 -0.29565665 13.41551185 -3 20 C-2.34 20.33 -1.68 20.66 -1 21 C-2.65 22.65 -4.3 24.3 -6 26 C-6.33 25.67 -6.66 25.34 -7 25 C-6.5717438 18.9092452 -5.06490256 13.69610802 -2.9375 8 C-2.65583984 7.22527344 -2.37417969 6.45054687 -2.08398438 5.65234375 C-1.39679702 3.76549033 -0.69945987 1.88233849 0 0 Z " fill="#629EB9" transform="translate(131,290)"/>
<path d="M0 0 C0.33 0.66 0.66 1.32 1 2 C20.8 2 40.6 2 61 2 C61 2.33 61 2.66 61 3 C53.4895565 3.13068858 45.97910821 3.26109828 38.46865368 3.39115143 C34.98129732 3.45154825 31.49394268 3.51204133 28.0065918 3.57275391 C23.99788904 3.64253868 19.98917915 3.71190565 15.98046875 3.78125 C14.72727341 3.80312378 13.47407806 3.82499756 12.1829071 3.84753418 C11.02193008 3.86755493 9.86095306 3.88757568 8.66479492 3.90820312 C7.64109299 3.92596802 6.61739105 3.94373291 5.56266785 3.96203613 C3.70860548 3.98950258 1.8542658 4 0 4 C-0.33 3.34 -0.66 2.68 -1 2 C-0.67 1.34 -0.34 0.68 0 0 Z " fill="#C0DBE2" transform="translate(242,237)"/>
<path d="M0 0 C17.82 0 35.64 0 54 0 C54 1.65 54 3.3 54 5 C52.68 5 51.36 5 50 5 C50 3.68 50 2.36 50 1 C33.5 1 17 1 0 1 C0 0.67 0 0.34 0 0 Z " fill="#3886AA" transform="translate(265,174)"/>
<path d="M0 0 C2.45662438 2.45662438 3.02892848 4.49593326 4.1640625 7.77734375 C4.56367188 8.93041016 4.96328125 10.08347656 5.375 11.27148438 C5.99375 13.08616211 5.99375 13.08616211 6.625 14.9375 C7.25535156 16.74637695 7.25535156 16.74637695 7.8984375 18.59179688 C11 27.60948914 11 27.60948914 11 31 C10.01 30.67 9.02 30.34 8 30 C7.4375 28.1875 7.4375 28.1875 7 26 C6.505 25.13375 6.505 25.13375 6 24.25 C4.98245721 21.96052872 4.74689864 20.28589528 4.5 17.8125 C4.335 16.554375 4.17 15.29625 4 14 C3.34 13.67 2.68 13.34 2 13 C1.3671875 11.07421875 1.3671875 11.07421875 0.875 8.6875 C0.70742187 7.90761719 0.53984375 7.12773438 0.3671875 6.32421875 C0 4 0 4 0 0 Z " fill="#7EBACF" transform="translate(240,102)"/>
<path d="M0 0 C1.94788408 5.84365224 2.20417003 9.53408173 0.0625 15.375 C-0.31777344 16.43460938 -0.69804687 17.49421875 -1.08984375 18.5859375 C-1.39019531 19.38257813 -1.69054687 20.17921875 -2 21 C-2.33 19.68 -2.66 18.36 -3 17 C-3.66 17.33 -4.32 17.66 -5 18 C-4.56699236 11.18012971 -3.09212176 6.08356979 0 0 Z " fill="#4187AC" transform="translate(209,118)"/>
<path d="M0 0 C3.875 0.875 3.875 0.875 5 2 C5.45140786 8.31971004 4.28504188 13.12417803 2 19 C-0.52775351 15.20836973 -0.22443035 12.19125969 -0.125 7.8125 C-0.11597656 7.06291016 -0.10695312 6.31332031 -0.09765625 5.54101562 C-0.07412578 3.69387346 -0.03825561 1.84689588 0 0 Z " fill="#5699B9" transform="translate(180,196)"/>
<path d="M0 0 C2.97 0.495 2.97 0.495 6 1 C6 1.66 6 2.32 6 3 C4.62304688 4.23681641 4.62304688 4.23681641 2.71875 5.6015625 C2.04199219 6.09140625 1.36523438 6.58125 0.66796875 7.0859375 C-0.40517578 7.84777344 -0.40517578 7.84777344 -1.5 8.625 C-2.57314453 9.3984375 -2.57314453 9.3984375 -3.66796875 10.1875 C-5.44120429 11.46422959 -7.21859948 12.73470027 -9 14 C-9.66 13.67 -10.32 13.34 -11 13 C-9.6875 10.5 -9.6875 10.5 -8 8 C-7.01 8 -6.02 8 -5 8 C-5 7.34 -5 6.68 -5 6 C-4.01 6 -3.02 6 -2 6 C-1.855625 5.38125 -1.71125 4.7625 -1.5625 4.125 C-1 2 -1 2 0 0 Z " fill="#607B8D" transform="translate(361,142)"/>
<path d="M0 0 C0.66 0 1.32 0 2 0 C2 0.66 2 1.32 2 2 C2.66 2 3.32 2 4 2 C5 3 6 4 7 5 C9.09989652 6.17574711 9.09989652 6.17574711 11 7 C11 7.66 11 8.32 11 9 C12.65 9.33 14.3 9.66 16 10 C15.67 11.32 15.34 12.64 15 14 C11.46433646 12.38753587 8.45224677 10.28040353 5.3125 8 C4.33925781 7.29875 3.36601563 6.5975 2.36328125 5.875 C0 4 0 4 -1 2 C-0.67 1.34 -0.34 0.68 0 0 Z " fill="#50748C" transform="translate(106,170)"/>
<path d="M0 0 C0.99 0 1.98 0 3 0 C3 2.64 3 5.28 3 8 C3.66 8 4.32 8 5 8 C5.33 7.01 5.66 6.02 6 5 C6 7.31 6 9.62 6 12 C6.66 12 7.32 12 8 12 C8.66 13.98 9.32 15.96 10 18 C9.34 18 8.68 18 8 18 C8 17.01 8 16.02 8 15 C7.34 15 6.68 15 6 15 C6.33 16.98 6.66 18.96 7 21 C4.76872275 17.65308412 3.61467238 14.28388372 2.375 10.5 C2.03082031 9.48486328 2.03082031 9.48486328 1.6796875 8.44921875 C0.70703083 5.51387986 0 3.11291919 0 0 Z " fill="#4E819F" transform="translate(228,139)"/>
<path d="M0 0 C1.65 0 3.3 0 5 0 C5.33 0.99 5.66 1.98 6 3 C8.0604475 4.34887287 8.0604475 4.34887287 10.5 5.5 C12.96875 6.71875 12.96875 6.71875 15 8 C15.33 8.99 15.66 9.98 16 11 C11.25614196 11 9.31162075 9.40272336 5.75 6.625 C5.19570312 6.2125 4.64140625 5.8 4.0703125 5.375 C2.66946337 4.30538614 1.32901185 3.15766126 0 2 C0 1.34 0 0.68 0 0 Z " fill="#5B7E90" transform="translate(68,144)"/>
<path d="M0 0 C-3.12360568 2.14786858 -6.24911733 4.29294687 -9.375 6.4375 C-10.26445312 7.04916016 -11.15390625 7.66082031 -12.0703125 8.29101562 C-12.92109375 8.87431641 -13.771875 9.45761719 -14.6484375 10.05859375 C-15.43395996 10.59798584 -16.21948242 11.13737793 -17.02880859 11.69311523 C-19 13 -19 13 -21 14 C-21 13.01 -21 12.02 -21 11 C-20.34 11 -19.68 11 -19 11 C-18.67 10.34 -18.34 9.68 -18 9 C-5.3630137 -1.78767123 -5.3630137 -1.78767123 0 0 Z " fill="#1C79B0" transform="translate(186,271)"/>
<path d="M0 0 C2.23083586 3.34625379 3.42470489 6.72240778 4.6875 10.5 C4.92533203 11.17675781 5.16316406 11.85351562 5.40820312 12.55078125 C7.11983385 17.64049844 7.11983385 17.64049844 6 21 C3 19 3 19 2.33984375 16.21484375 C2.20707031 15.13332031 2.07429687 14.05179688 1.9375 12.9375 C1.68926433 10.94925052 1.3907285 8.96521963 1 7 C0.34 6.67 -0.32 6.34 -1 6 C-0.67 4.02 -0.34 2.04 0 0 Z " fill="#71B4CD" transform="translate(233,80)"/>
<path d="M0 0 C5.625 -0.25 5.625 -0.25 9 2 C9 2.99 9 3.98 9 5 C10.65 5.33 12.3 5.66 14 6 C14.33 7.65 14.66 9.3 15 11 C11.43503982 9.37879192 8.40991178 7.2405574 5.25 4.9375 C3.77273437 3.86822266 3.77273437 3.86822266 2.265625 2.77734375 C1.51796875 2.19082031 0.7703125 1.60429687 0 1 C0 0.67 0 0.34 0 0 Z " fill="#4E7488" transform="translate(137,196)"/>
<path d="M0 0 C-3.9700218 4.21814817 -8.30840284 7.61227103 -13 11 C-13.66 10.67 -14.32 10.34 -15 10 C-14.75 8.125 -14.75 8.125 -14 6 C-11.06004981 3.97244814 -9.72295997 4 -6 4 C-6 2.68 -6 1.36 -6 0 C-3 -1 -3 -1 0 0 Z " fill="#43677E" transform="translate(180,280)"/>
<path d="M0 0 C1.37138302 4.72132628 1.24430965 9.39677324 -0.890625 13.86328125 C-1.91308631 15.58391577 -2.95631676 17.2921547 -4 19 C-4.72045764 20.9812585 -5.40781343 22.97669589 -6 25 C-7.18878413 21.43364762 -6.72013686 20.39620485 -5.56640625 16.89453125 C-5.24736328 15.91162109 -4.92832031 14.92871094 -4.59960938 13.91601562 C-4.25736328 12.89185547 -3.91511719 11.86769531 -3.5625 10.8125 C-3.22412109 9.77673828 -2.88574219 8.74097656 -2.53710938 7.67382812 C-1.69929252 5.1131766 -0.85331644 2.5555198 0 0 Z " fill="#82BBCF" transform="translate(150,231)"/>
<path d="M0 0 C1.26977059 3.80931176 0.52074507 5.81618993 -0.4375 9.6875 C-0.72496094 10.86699219 -1.01242188 12.04648438 -1.30859375 13.26171875 C-1.53675781 14.16535156 -1.76492187 15.06898438 -2 16 C-2.99 15.67 -3.98 15.34 -5 15 C-4.88490339 13.58249437 -4.75746342 12.16598831 -4.625 10.75 C-4.55539063 9.96109375 -4.48578125 9.1721875 -4.4140625 8.359375 C-3.78040122 4.74870127 -2.58358862 2.58358862 0 0 Z " fill="#316D8D" transform="translate(206,132)"/>
<path d="M0 0 C1.32 0.33 2.64 0.66 4 1 C5.88698167 5.05701058 6.21117043 8.56542098 6 13 C5.01 13.495 5.01 13.495 4 14 C4 13.34 4 12.68 4 12 C3.34 12 2.68 12 2 12 C1.34 8.04 0.68 4.08 0 0 Z " fill="#1B6088" transform="translate(222,118)"/>
<path d="M0 0 C-0.33 0.99 -0.66 1.98 -1 3 C-1 3.66 -1 4.32 -1 5 C-3.31 5 -5.62 5 -8 5 C-7.67 6.32 -7.34 7.64 -7 9 C-7.99 9.495 -7.99 9.495 -9 10 C-9 9.34 -9 8.68 -9 8 C-9.99 8 -10.98 8 -12 8 C-10.9153444 4.7460332 -10.36559948 4.22215123 -7.6875 2.3125 C-6.79611328 1.65701172 -6.79611328 1.65701172 -5.88671875 0.98828125 C-4 0 -4 0 0 0 Z " fill="#104268" transform="translate(219,249)"/>
<path d="M0 0 C0.33 1.32 0.66 2.64 1 4 C0.01 4 -0.98 4 -2 4 C-2 4.66 -2 5.32 -2 6 C-2.99 6 -3.98 6 -5 6 C-5.226875 6.804375 -5.45375 7.60875 -5.6875 8.4375 C-6.3371875 9.7059375 -6.3371875 9.7059375 -7 11 C-9.625 11.8125 -9.625 11.8125 -12 12 C-11.71855013 8.79580145 -10.99711793 7.99753608 -8.49609375 5.859375 C-7.48675781 5.16328125 -6.47742188 4.4671875 -5.4375 3.75 C-4.42558594 3.04359375 -3.41367187 2.3371875 -2.37109375 1.609375 C-1.58863281 1.07828125 -0.80617188 0.5471875 0 0 Z " fill="#0F3D5D" transform="translate(358,144)"/>
<path d="M0 0 C0.8971875 0.5259375 0.8971875 0.5259375 1.8125 1.0625 C1.626875 1.68125 1.44125 2.3 1.25 2.9375 C0.57563824 5.10410178 0.57563824 5.10410178 1.8125 7.0625 C1.296875 6.711875 0.78125 6.36125 0.25 6 C-3.12756667 4.7009359 -5.69218057 5.39032319 -9.1875 6.0625 C-9.5175 5.0725 -9.8475 4.0825 -10.1875 3.0625 C-8.2075 2.7325 -6.2275 2.4025 -4.1875 2.0625 C-4.5175 1.4025 -4.8475 0.7425 -5.1875 0.0625 C-2.1875 -0.9375 -2.1875 -0.9375 0 0 Z " fill="#3C5D78" transform="translate(221.1875,250.9375)"/>
<path d="M0 0 C0.66 0 1.32 0 2 0 C3.0024305 5.34629602 2.84888195 9.62374766 2 15 C1.34 14.34 0.68 13.68 0 13 C-0.99 13.99 -1.98 14.98 -3 16 C-3 14.68 -3 13.36 -3 12 C-2.34 12 -1.68 12 -1 12 C-0.67 8.04 -0.34 4.08 0 0 Z " fill="#5599B6" transform="translate(320,211)"/>
<path d="M0 0 C1.13765883 4.25790437 1.02220657 7.70673239 0 12 C-1.4375 14.1875 -1.4375 14.1875 -3 16 C-3.71162443 17.64797236 -4.39031953 19.31165408 -5 21 C-6.12018319 17.63945043 -5.90181274 16.98276729 -4.78515625 13.76953125 C-4.51123047 12.96708984 -4.23730469 12.16464844 -3.95507812 11.33789062 C-3.51325195 10.08782227 -3.51325195 10.08782227 -3.0625 8.8125 C-2.77181641 7.96751953 -2.48113281 7.12253906 -2.18164062 6.25195312 C-1.46242463 4.16504771 -0.7349657 2.08140006 0 0 Z " fill="#82C0D5" transform="translate(190,109)"/>
<path d="M0 0 C1.32 0.66 2.64 1.32 4 2 C1.03 4.31 -1.94 6.62 -5 9 C-5.66 8.67 -6.32 8.34 -7 8 C-6.34 6.35 -5.68 4.7 -5 3 C-4.01 3 -3.02 3 -2 3 C-2 2.34 -2 1.68 -2 1 C-1.34 0.67 -0.68 0.34 0 0 Z " fill="#3E687E" transform="translate(150,298)"/>
<path d="M0 0 C-0.33 1.32 -0.66 2.64 -1 4 C-0.01 4.33 0.98 4.66 2 5 C-1.49808262 7.33205508 -2.90894125 7.08349099 -7 7 C-9.26566343 7.43941523 -9.26566343 7.43941523 -11 8 C-3.21621622 0 -3.21621622 0 0 0 Z " fill="#22597B" transform="translate(197,263)"/>
<path d="M0 0 C11.70615034 7.11389522 11.70615034 7.11389522 16 12 C14.68 12 13.36 12 12 12 C12 11.34 12 10.68 12 10 C10.35 9.67 8.7 9.34 7 9 C7 8.34 7 7.68 7 7 C3.535 5.02 3.535 5.02 0 3 C0 2.01 0 1.02 0 0 Z " fill="#0C4167" transform="translate(229,257)"/>
<path d="M0 0 C0.66 0.66 1.32 1.32 2 2 C1.65428657 7.64665273 -0.09060254 12.70412403 -2 18 C-2.33 18 -2.66 18 -3 18 C-3.21586845 12.06361776 -2.71249434 6.71248111 -1 1 C-0.67 0.67 -0.34 0.34 0 0 Z " fill="#537E96" transform="translate(214,106)"/>
<path d="M0 0 C2.60018816 3.90028225 2.15085514 7.47434569 2 12 C-4.875 8.25 -4.875 8.25 -6 6 C-5.38125 5.938125 -4.7625 5.87625 -4.125 5.8125 C-1.72238859 5.171081 -1.72238859 5.171081 -0.75 2.4375 C-0.5025 1.633125 -0.255 0.82875 0 0 Z " fill="#758E9B" transform="translate(308,309)"/>
<path d="M0 0 C0.33 0 0.66 0 1 0 C0.22095672 10.55808656 0.22095672 10.55808656 -2 15 C-2.33 14.34 -2.66 13.68 -3 13 C-3.66 13 -4.32 13 -5 13 C-4.54554036 11.58208592 -4.08625056 10.16571954 -3.625 8.75 C-3.24214844 7.56664062 -3.24214844 7.56664062 -2.8515625 6.359375 C-2.04826333 4.13372042 -1.10288338 2.09068328 0 0 Z " fill="#43728C" transform="translate(200,150)"/>
<path d="M0 0 C0.99 0 1.98 0 3 0 C1.99023354 3.63515926 1.05356282 4.95669389 -1.9375 7.375 C-3.4534375 8.179375 -3.4534375 8.179375 -5 9 C-5.99 8.67 -6.98 8.34 -8 8 C-7.34 8 -6.68 8 -6 8 C-5.67 6.68 -5.34 5.36 -5 4 C-4.01 4 -3.02 4 -2 4 C-1.34 2.68 -0.68 1.36 0 0 Z " fill="#5D8396" transform="translate(317,229)"/>
<path d="M0 0 C0.66 0.33 1.32 0.66 2 1 C1.56802365 5.7517398 0.67230705 7.92000054 -3 11 C-3.75 8.3125 -3.75 8.3125 -4 5 C-2.0625 2.125 -2.0625 2.125 0 0 Z " fill="#44738E" transform="translate(316,178)"/>
<path d="M0 0 C0.66 0.33 1.32 0.66 2 1 C0.5486164 3.56165861 -0.94367243 5.8825934 -3 8 C-6.8125 8.9375 -6.8125 8.9375 -10 9 C-6.83047153 5.73991357 -3.60062011 2.77762123 0 0 Z " fill="#62A0BD" transform="translate(205,229)"/>
<path d="M0 0 C0 0.99 0 1.98 0 3 C-0.99 3.33 -1.98 3.66 -3 4 C-3 4.66 -3 5.32 -3 6 C-3.99 6.33 -4.98 6.66 -6 7 C-7.21869929 9.50447516 -7.21869929 9.50447516 -8 12 C-8.33 11.34 -8.66 10.68 -9 10 C-9.66 10 -10.32 10 -11 10 C-11 10.66 -11 11.32 -11 12 C-11.66 12 -12.32 12 -13 12 C-11.47236536 7.91403748 -8.88915809 6.20173821 -5.375 3.75 C-4.37210938 3.04359375 -3.36921875 2.3371875 -2.3359375 1.609375 C-1.56507813 1.07828125 -0.79421875 0.5471875 0 0 Z " fill="#0D4C74" transform="translate(151,295)"/>
<path d="M0 0 C3.83663072 1.34929464 6.65172569 3.07751025 9.8125 5.625 C10.99779297 6.57246094 10.99779297 6.57246094 12.20703125 7.5390625 C12.79871094 8.02117187 13.39039062 8.50328125 14 9 C13.01 9.495 13.01 9.495 12 10 C11.01 9.67 10.02 9.34 9 9 C9 8.34 9 7.68 9 7 C7.5459375 6.5978125 7.5459375 6.5978125 6.0625 6.1875 C5.051875 5.795625 4.04125 5.40375 3 5 C2.67 4.01 2.34 3.02 2 2 C1.34 2 0.68 2 0 2 C0 1.34 0 0.68 0 0 Z " fill="#185A83" transform="translate(108,170)"/>
<path d="M0 0 C1.5625 1.625 1.5625 1.625 3 4 C2.6875 7.25 2.6875 7.25 2 10 C1.34 9.01 0.68 8.02 0 7 C-0.33 7.99 -0.66 8.98 -1 10 C-1.66 10 -2.32 10 -3 10 C-2.25 3.375 -2.25 3.375 0 0 Z " fill="#398AB8" transform="translate(200,144)"/>
<path d="M0 0 C3.375 -0.125 3.375 -0.125 7 0 C9.35953094 2.35953094 9.49141413 3.77895617 10 7 C5.56541027 5.6062718 3.12621626 3.39417765 0 0 Z " fill="#56798D" transform="translate(287,304)"/>
<path d="M0 0 C0.66 0.33 1.32 0.66 2 1 C-0.28712911 2.83925787 -2.57928535 4.67151494 -4.875 6.5 C-5.52597656 7.02464844 -6.17695313 7.54929687 -6.84765625 8.08984375 C-7.47285156 8.58613281 -8.09804687 9.08242188 -8.7421875 9.59375 C-9.3182373 10.05458984 -9.89428711 10.51542969 -10.48779297 10.99023438 C-12 12 -12 12 -14 12 C-13.67 11.01 -13.34 10.02 -13 9 C-10.4375 7.8125 -10.4375 7.8125 -8 7 C-8 6.34 -8 5.68 -8 5 C-7.01 4.67 -6.02 4.34 -5 4 C-3.97980427 3.0206121 -2.97850195 2.02104551 -2 1 C-1.34 0.67 -0.68 0.34 0 0 Z " fill="#1E79AB" transform="translate(154,291)"/>
<path d="M0 0 C-4.29 2.97 -8.58 5.94 -13 9 C-13 6 -13 6 -11.5390625 4.4296875 C-10.90742188 3.91664063 -10.27578125 3.40359375 -9.625 2.875 C-8.99851563 2.35679687 -8.37203125 1.83859375 -7.7265625 1.3046875 C-4.47662879 -1.15114476 -4.32254207 -1.08063552 0 0 Z " fill="#176598" transform="translate(207,256)"/>
<path d="M0 0 C0.33 0.99 0.66 1.98 1 3 C0.34 3 -0.32 3 -1 3 C-1 3.66 -1 4.32 -1 5 C-4.3 5 -7.6 5 -11 5 C-10.34 3.68 -9.68 2.36 -9 1 C-7.88625 1.020625 -6.7725 1.04125 -5.625 1.0625 C-2.16784079 1.26380718 -2.16784079 1.26380718 0 0 Z " fill="#416983" transform="translate(310,234)"/>
<path d="M0 0 C0 3.20395416 -0.74335022 5.09399739 -2 8 C0.64 8.33 3.28 8.66 6 9 C6 9.33 6 9.66 6 10 C5.37351563 10.04898438 4.74703125 10.09796875 4.1015625 10.1484375 C3.28429687 10.22320312 2.46703125 10.29796875 1.625 10.375 C0.81289062 10.44460937 0.00078125 10.51421875 -0.8359375 10.5859375 C-3.20334191 10.82892588 -3.20334191 10.82892588 -5 13 C-5.94842031 10.45754795 -6.18742484 9.41065849 -5.0390625 6.89453125 C-4.57242188 6.20746094 -4.10578125 5.52039063 -3.625 4.8125 C-2.93277344 3.77029297 -2.93277344 3.77029297 -2.2265625 2.70703125 C-1 1 -1 1 0 0 Z " fill="#74AFCA" transform="translate(248,224)"/>
<path d="M0 0 C2.97 0.495 2.97 0.495 6 1 C6 1.66 6 2.32 6 3 C6.99 3 7.98 3 9 3 C9 3.66 9 4.32 9 5 C10.32 5.33 11.64 5.66 13 6 C13 6.99 13 7.98 13 9 C7.97290493 7.42903279 3.97133531 4.38006951 0 1 C0 0.67 0 0.34 0 0 Z " fill="#1A79AE" transform="translate(114,173)"/>
<path d="M0 0 C1.43211146 3.8189639 1.3006473 8.1611198 0 12 C-2.05078125 13.74609375 -2.05078125 13.74609375 -4 15 C-2.07289294 4.44191344 -2.07289294 4.44191344 0 0 Z " fill="#7CB8D0" transform="translate(131,290)"/>
<path d="M0 0 C2 3 2 3 1.828125 5.15625 C1.63734375 5.9296875 1.4465625 6.703125 1.25 7.5 C0.97929687 8.66015625 0.97929687 8.66015625 0.703125 9.84375 C0 12 0 12 -2 15 C-3.6112798 9.28728072 -2.08989546 5.31329355 0 0 Z " fill="#4C7791" transform="translate(171,237)"/>
<path d="M0 0 C4.59306496 1.4859916 7.43569245 3.85014682 11 7 C10.01 7.33 9.02 7.66 8 8 C3 5 3 5 1 3 C0.01 3 -0.98 3 -2 3 C-1.34 2.01 -0.68 1.02 0 0 Z " fill="#1A587E" transform="translate(122,180)"/>
<path d="M0 0 C2.64 0.66 5.28 1.32 8 2 C8 2.66 8 3.32 8 4 C8.99 4 9.98 4 11 4 C11.33 4.99 11.66 5.98 12 7 C7.65432161 7 6.99459211 6.61611416 3.75 4.0625 C3.04359375 3.51722656 2.3371875 2.97195312 1.609375 2.41015625 C1.07828125 1.94480469 0.5471875 1.47945312 0 1 C0 0.67 0 0.34 0 0 Z " fill="#5F8496" transform="translate(83,156)"/>
<path d="M0 0 C0.66 0 1.32 0 2 0 C2 0.99 2 1.98 2 3 C3.0725 3.12375 4.145 3.2475 5.25 3.375 C8.44666333 3.90777722 10.24091652 4.49837492 13 6 C12.30132812 5.96519531 11.60265625 5.93039063 10.8828125 5.89453125 C9.97273437 5.86746094 9.06265625 5.84039062 8.125 5.8125 C7.22007812 5.77769531 6.31515625 5.74289063 5.3828125 5.70703125 C4.59648437 5.80371094 3.81015625 5.90039062 3 6 C2.34 6.99 1.68 7.98 1 9 C0.67 6.03 0.34 3.06 0 0 Z " fill="#1F638D" transform="translate(234,154)"/>
<path d="M0 0 C1.98 0.99 3.96 1.98 6 3 C5.67 5.64 5.34 8.28 5 11 C4.34 11 3.68 11 3 11 C2.814375 9.576875 2.814375 9.576875 2.625 8.125 C2.28312823 4.91332809 2.28312823 4.91332809 0 3 C0 2.01 0 1.02 0 0 Z " fill="#10567F" transform="translate(228,136)"/>
<path d="M0 0 C1.13441522 3.82161154 0.61768994 5.33891223 -1 9 C-1.309375 10.175625 -1.61875 11.35125 -1.9375 12.5625 C-2.91496042 15.72487194 -3.84296522 17.54882411 -6 20 C-4.63125844 13.04223041 -2.5466871 6.61396893 0 0 Z " fill="#94C9DA" transform="translate(215,36)"/>
<path d="M0 0 C0.33 0 0.66 0 1 0 C1.12375 0.9075 1.2475 1.815 1.375 2.75 C1.83249734 5.91836005 1.83249734 5.91836005 3.125 8.25 C3.41375 8.8275 3.7025 9.405 4 10 C3.67 10.66 3.34 11.32 3 12 C2.34 12 1.68 12 1 12 C0.67 11.34 0.34 10.68 0 10 C-0.66 10.66 -1.32 11.32 -2 12 C-1.85904936 10.3745692 -1.71207913 8.74965949 -1.5625 7.125 C-1.48128906 6.22007812 -1.40007812 5.31515625 -1.31640625 4.3828125 C-1 2 -1 2 0 0 Z " fill="#4290B9" transform="translate(166,246)"/>
<path d="M0 0 C3.3 0 6.6 0 10 0 C9.67 0.99 9.34 1.98 9 3 C4.94568308 4.15837626 2.78187881 3.83691257 -1 2 C-0.67 1.34 -0.34 0.68 0 0 Z " fill="#1C5980" transform="translate(245,234)"/>
<path d="M0 0 C0.99 0.33 1.98 0.66 3 1 C2.67 3.97 2.34 6.94 2 10 C1.34 10 0.68 10 0 10 C-1.125 3.375 -1.125 3.375 0 0 Z " fill="#386F90" transform="translate(172,230)"/>
<path d="M0 0 C0.95278709 3.2425496 1.19541781 6.25000153 1.25 9.625 C1.27578125 10.58664063 1.3015625 11.54828125 1.328125 12.5390625 C1.21984375 13.35117188 1.1115625 14.16328125 1 15 C0.01 15.66 -0.98 16.32 -2 17 C-2.3690205 5.47835991 -2.3690205 5.47835991 0 0 Z " fill="#92C5D6" transform="translate(245,183)"/>
<path d="M0 0 C1.32 0.33 2.64 0.66 4 1 C4 1.66 4 2.32 4 3 C4.969375 3.268125 5.93875 3.53625 6.9375 3.8125 C7.948125 4.204375 8.95875 4.59625 10 5 C10.33 5.99 10.66 6.98 11 8 C13.00016466 9.20882096 13.00016466 9.20882096 15 10 C14.01 10.495 14.01 10.495 13 11 C11.01712504 9.54648985 9.03870613 8.08752713 7.0625 6.625 C6.49853516 6.2125 5.93457031 5.8 5.35351562 5.375 C1.11328125 2.2265625 1.11328125 2.2265625 0 0 Z " fill="#1B70A1" transform="translate(131,185)"/>
<path d="M0 0 C0.66 0.66 1.32 1.32 2 2 C1.8125 4.5 1.8125 4.5 1 7 C0.01 7.66 -0.98 8.32 -2 9 C-3.32 7.68 -4.64 6.36 -6 5 C-4.35 4.67 -2.7 4.34 -1 4 C-0.67 2.68 -0.34 1.36 0 0 Z " fill="#21506B" transform="translate(306,307)"/>
<path d="M0 0 C1.65 0.33 3.3 0.66 5 1 C1.72291137 4.67033927 -1.71522208 6.69281189 -6 9 C-6 8.01 -6 7.02 -6 6 C-5.01 6 -4.02 6 -3 6 C-3.33 5.01 -3.66 4.02 -4 3 C-2.68 3.33 -1.36 3.66 0 4 C0 2.68 0 1.36 0 0 Z " fill="#4E697A" transform="translate(205,258)"/>
<path d="M0 0 C6.30719307 0.92065781 9.91921368 1.9977458 14 7 C9.545 6.01 9.545 6.01 5 5 C5 4.34 5 3.68 5 3 C4.360625 2.87625 3.72125 2.7525 3.0625 2.625 C2.381875 2.41875 1.70125 2.2125 1 2 C0.67 1.34 0.34 0.68 0 0 Z " fill="#477794" transform="translate(239,241)"/>
<path d="M0 0 C2.375 0.625 2.375 0.625 5 2 C6.3125 5.125 6.3125 5.125 7 8 C6.01 7.67 5.02 7.34 4 7 C3.34 7.66 2.68 8.32 2 9 C1.34 6.03 0.68 3.06 0 0 Z " fill="#4582A6" transform="translate(225,130)"/>
<path d="M0 0 C4.43458973 1.3937282 6.87378374 3.60582235 10 7 C5.85463326 6.5289356 3.0080208 6.0080208 0 3 C0 2.01 0 1.02 0 0 Z " fill="#1E5F8A" transform="translate(73,144)"/>
<path d="M0 0 C1.98 0.66 3.96 1.32 6 2 C6 3.65 6 5.3 6 7 C1.32307692 5.52307692 1.32307692 5.52307692 -0.3125 2.875 C-0.539375 2.25625 -0.76625 1.6375 -1 1 C-0.67 0.67 -0.34 0.34 0 0 Z " fill="#50788F" transform="translate(96,163)"/>
<path d="M0 0 C0.99 0 1.98 0 3 0 C3 0.99 3 1.98 3 3 C1.46875 4.38671875 1.46875 4.38671875 -0.5 5.6875 C-1.47453125 6.34298828 -1.47453125 6.34298828 -2.46875 7.01171875 C-2.9740625 7.33785156 -3.479375 7.66398438 -4 8 C-4.66 7.67 -5.32 7.34 -6 7 C-4.6875 4.5 -4.6875 4.5 -3 2 C-2.01 2 -1.02 2 0 2 C0 1.34 0 0.68 0 0 Z " fill="#516D80" transform="translate(356,148)"/>
<path d="M0 0 C0.66 0 1.32 0 2 0 C4.42857143 7.42857143 4.42857143 7.42857143 3 11 C2.67 9.35 2.34 7.7 2 6 C1.34 6 0.68 6 0 6 C-0.33 6.66 -0.66 7.32 -1 8 C-0.67 5.36 -0.34 2.72 0 0 Z " fill="#0E537D" transform="translate(216,100)"/>
<path d="M0 0 C2.31 0.66 4.62 1.32 7 2 C7.33 3.32 7.66 4.64 8 6 C5.6875 5.8125 5.6875 5.8125 3 5 C1.1875 2.4375 1.1875 2.4375 0 0 Z " fill="#375C76" transform="translate(150,204)"/>
<path d="M0 0 C1.67542976 0.28604898 3.34385343 0.61781233 5 1 C4.814375 1.61875 4.62875 2.2375 4.4375 2.875 C3.76313824 5.04160178 3.76313824 5.04160178 5 7 C2.37812506 5.95125002 1.20628639 5.35068687 -0.25 2.875 C-0.4975 2.25625 -0.745 1.6375 -1 1 C-0.67 0.67 -0.34 0.34 0 0 Z " fill="#396480" transform="translate(132,189)"/>
<path d="M0 0 C2.12493141 -0.02693575 4.24995912 -0.04636628 6.375 -0.0625 C7.55835938 -0.07410156 8.74171875 -0.08570313 9.9609375 -0.09765625 C13 0 13 0 15 1 C15 1.66 15 2.32 15 3 C13.00045254 3.04254356 10.99958364 3.04080783 9 3 C8.67 2.67 8.34 2.34 8 2 C6.65252916 1.76924918 5.29622435 1.58846937 3.9375 1.4375 C2.638125 1.293125 1.33875 1.14875 0 1 C0 0.67 0 0.34 0 0 Z " fill="#195174" transform="translate(144,161)"/>
<path d="M0 0 C1.32 0 2.64 0 4 0 C4.33 1.98 4.66 3.96 5 6 C4.34 5.34 3.68 4.68 3 4 C3.33 6.64 3.66 9.28 4 12 C1.57869669 9.57869669 1.47159496 8.19888623 0.875 4.875 C0.70742187 3.96492188 0.53984375 3.05484375 0.3671875 2.1171875 C0.24601563 1.41851562 0.12484375 0.71984375 0 0 Z " fill="#6194B1" transform="translate(220,115)"/>
<path d="M0 0 C0.66 0 1.32 0 2 0 C2.66 2.97 3.32 5.94 4 9 C1.525 8.01 1.525 8.01 -1 7 C-0.67 4.69 -0.34 2.38 0 0 Z " fill="#6AAFCD" transform="translate(229,71)"/>
<path d="M0 0 C0.99 0.33 1.98 0.66 3 1 C2.67 3.97 2.34 6.94 2 10 C0.4375 8.375 0.4375 8.375 -1 6 C-0.6875 2.75 -0.6875 2.75 0 0 Z " fill="#417E9D" transform="translate(174,224)"/>
<path d="M0 0 C0.99 0.33 1.98 0.66 3 1 C2.609375 6.95703125 2.609375 6.95703125 2 9 C0.68 9.99 -0.64 10.98 -2 12 C-1.34 8.04 -0.68 4.08 0 0 Z " fill="#78B7CF" transform="translate(156,210)"/>
<path d="M0 0 C0.66 0.33 1.32 0.66 2 1 C1.32829194 4.8063457 0.27253436 8.35206816 -1 12 C-1.33 12 -1.66 12 -2 12 C-2.05422947 10.5629191 -2.09289723 9.12524538 -2.125 7.6875 C-2.14820313 6.88699219 -2.17140625 6.08648437 -2.1953125 5.26171875 C-2 3 -2 3 0 0 Z " fill="#1A73A4" transform="translate(178,211)"/>
<path d="M0 0 C0.66 0 1.32 0 2 0 C2.33 1.98 2.66 3.96 3 6 C6.63 6 10.26 6 14 6 C14 6.33 14 6.66 14 7 C12.04233719 7.08082094 10.08373272 7.13910778 8.125 7.1875 C6.48917969 7.23970703 6.48917969 7.23970703 4.8203125 7.29296875 C3.88960937 7.19628906 2.95890625 7.09960938 2 7 C0 4 0 4 0 0 Z " fill="#347A9D" transform="translate(249,133)"/>
<path d="M0 0 C2.97 1.98 2.97 1.98 6 4 C5.01 4.99 4.02 5.98 3 7 C1.68 5.68 0.36 4.36 -1 3 C-0.67 2.01 -0.34 1.02 0 0 Z " fill="#134669" transform="translate(249,271)"/>
<path d="M0 0 C0.99 0.33 1.98 0.66 3 1 C1.93106782 2.03590338 0.84421512 3.05333942 -0.25 4.0625 C-1.15492188 4.91521484 -1.15492188 4.91521484 -2.078125 5.78515625 C-4 7 -4 7 -6.234375 6.68359375 C-6.81703125 6.45800781 -7.3996875 6.23242188 -8 6 C-6.7391988 4.96680187 -5.46596742 3.94875621 -4.1875 2.9375 C-3.47980469 2.36902344 -2.77210938 1.80054688 -2.04296875 1.21484375 C-1.36878906 0.81394531 -0.69460937 0.41304687 0 0 Z " fill="#78ACC3" transform="translate(215,222)"/>
<path d="M0 0 C4.1666604 0.47348414 6.92884715 1.04696841 10 4 C10 4.66 10 5.32 10 6 C8.0625 5.6875 8.0625 5.6875 6 5 C5.67 4.01 5.34 3.02 5 2 C3.35 2 1.7 2 0 2 C0 1.34 0 0.68 0 0 Z " fill="#70B0C8" transform="translate(308,198)"/>
<path d="M0 0 C0.66 0 1.32 0 2 0 C2 0.66 2 1.32 2 2 C3.65 2.33 5.3 2.66 7 3 C6.67 4.32 6.34 5.64 6 7 C3.11562221 5.70700306 1.12780579 4.34058637 -1 2 C-0.67 1.34 -0.34 0.68 0 0 Z " fill="#43697F" transform="translate(115,177)"/>
<path d="M0 0 C0.33 0 0.66 0 1 0 C1.36923077 7.50769231 1.36923077 7.50769231 -0.5 10 C-0.995 10.33 -1.49 10.66 -2 11 C-3.13643966 7.59068103 -2.86747764 6.99664544 -1.5625 3.8125 C-1.13130859 2.73935547 -1.13130859 2.73935547 -0.69140625 1.64453125 C-0.46324219 1.10183594 -0.23507813 0.55914062 0 0 Z " fill="#7FBED2" transform="translate(199,83)"/>
<path d="M0 0 C4.455 2.97 4.455 2.97 9 6 C6 7 6 7 2 7 C1 4 1 4 0 0 Z " fill="#1E6189" transform="translate(93,158)"/>
<path d="M0 0 C0.99 0.33 1.98 0.66 3 1 C1.76265016 2.03613033 0.50955363 3.05347802 -0.75 4.0625 C-1.79414063 4.91521484 -1.79414063 4.91521484 -2.859375 5.78515625 C-5 7 -5 7 -7.265625 6.68359375 C-7.83796875 6.45800781 -8.4103125 6.23242188 -9 6 C-8.01 6 -7.02 6 -6 6 C-6 5.34 -6 4.68 -6 4 C-3.1875 1.8125 -3.1875 1.8125 0 0 Z " fill="#1D7CB2" transform="translate(137,303)"/>
<path d="M0 0 C0.9937443 3.09937033 0.96795922 5.01211406 0.0625 8.125 C-0.7657149 11.01911548 -0.7657149 11.01911548 -1 14 C-1.99 14.33 -2.98 14.66 -4 15 C-2.9318153 9.88634986 -1.76892524 4.92772031 0 0 Z " fill="#9AC8D9" transform="translate(139,265)"/>
<path d="M0 0 C2.0625 1.75 2.0625 1.75 4 4 C3.75 6.25 3.75 6.25 3 8 C2.34 8 1.68 8 1 8 C-0.625 6 -0.625 6 -2 4 C-1.34 2.68 -0.68 1.36 0 0 Z " fill="#446F89" transform="translate(247,202)"/>
<path d="M0 0 C4.875 2.75 4.875 2.75 6 5 C3.125 5.1875 3.125 5.1875 0 5 C-0.66 4.01 -1.32 3.02 -2 2 C-1.34 2 -0.68 2 0 2 C0 1.34 0 0.68 0 0 Z " fill="#154B69" transform="translate(137,191)"/>
<path d="M0 0 C3.99455527 0.61454696 6.74466336 2.70646737 10 5 C7.16032769 5 4.76264289 4.59732819 2 4 C2 3.34 2 2.68 2 2 C1.34 2 0.68 2 0 2 C0 1.34 0 0.68 0 0 Z " fill="#6AB0C9" transform="translate(167,187)"/>
<path d="M0 0 C0.33 1.32 0.66 2.64 1 4 C0.01 4 -0.98 4 -2 4 C-2 4.66 -2 5.32 -2 6 C-3.98 6.33 -5.96 6.66 -8 7 C-5.42215154 4.35247996 -3.08351902 2.05567935 0 0 Z " fill="#104368" transform="translate(358,144)"/>
<path d="M0 0 C1.33623836 4.00871509 0.38227053 6.06052898 -1 10 C-2.625 12.4375 -2.625 12.4375 -4 14 C-3.00956295 9.16371695 -2.04301154 4.52381127 0 0 Z " fill="#ABDBE8" transform="translate(208,56)"/>
<path d="M0 0 C0.66 0.33 1.32 0.66 2 1 C1.5 2.875 1.5 2.875 0 5 C-2.65177645 5.98494554 -5.20547307 6.45912382 -8 7 C-5.42215154 4.35247996 -3.08351902 2.05567935 0 0 Z " fill="#82B7CA" transform="translate(193,238)"/>
<path d="M0 0 C3.3 0 6.6 0 10 0 C8.68 1.32 7.36 2.64 6 4 C1.125 2.25 1.125 2.25 0 0 Z " fill="#0F5F8C" transform="translate(132,160)"/>
<path d="M0 0 C-2.36292656 2.52588702 -3.66462511 3.88820837 -7 5 C-7.33 4.01 -7.66 3.02 -8 2 C-4.77208445 -0.1519437 -3.71599191 -0.20086443 0 0 Z " fill="#4B6C81" transform="translate(350,156)"/>
<path d="M0 0 C3.68754757 0.49831724 5.60490662 1.10067643 8 4 C7.67 4.66 7.34 5.32 7 6 C2.32307692 4.52307692 2.32307692 4.52307692 0.6875 1.875 C0.460625 1.25625 0.23375 0.6375 0 0 Z " fill="#38566D" transform="translate(236,266)"/>
<path d="M0 0 C0.33 0.66 0.66 1.32 1 2 C1.66 2 2.32 2 3 2 C2.67 3.98 2.34 5.96 2 8 C0.68 7.34 -0.64 6.68 -2 6 C-1.34 5.67 -0.68 5.34 0 5 C0 3.35 0 1.7 0 0 Z " fill="#7E9DAF" transform="translate(265,250)"/>
<path d="M0 0 C0 2.83967231 -0.40267181 5.23735711 -1 8 C-1.33 7.34 -1.66 6.68 -2 6 C-2.99 6 -3.98 6 -5 6 C-3.86695008 2.60085025 -2.87481525 1.94745549 0 0 Z " fill="#1B4F74" transform="translate(212,251)"/>
<path d="M0 0 C0.33 0.99 0.66 1.98 1 3 C-0.65 4.32 -2.3 5.64 -4 7 C-4 5.68 -4 4.36 -4 3 C-2 1.25 -2 1.25 0 0 Z " fill="#166B97" transform="translate(209,228)"/>
<path d="M0 0 C2.9375 0.8125 2.9375 0.8125 6 2 C6.33 2.99 6.66 3.98 7 5 C5.68 5 4.36 5 3 5 C1.25 2.5 1.25 2.5 0 0 Z " fill="#436B84" transform="translate(77,150)"/>
<path d="M0 0 C1.32 0.99 2.64 1.98 4 3 C3.01 3.66 2.02 4.32 1 5 C1.33 5.66 1.66 6.32 2 7 C0.68 6.34 -0.64 5.68 -2 5 C-1.34 3.35 -0.68 1.7 0 0 Z " fill="#446D85" transform="translate(300,308)"/>
<path d="M0 0 C2.125 0.9375 2.125 0.9375 4 2 C2.02 3.32 0.04 4.64 -2 6 C-2 4.35 -2 2.7 -2 1 C-1.34 0.67 -0.68 0.34 0 0 Z " fill="#53778B" transform="translate(150,298)"/>
<path d="M0 0 C2 3.875 2 3.875 2 5 C0.02 5 -1.96 5 -4 5 C-3.6875 3.0625 -3.6875 3.0625 -3 1 C-2.01 0.67 -1.02 0.34 0 0 Z " fill="#126A9B" transform="translate(166,255)"/>
<path d="M0 0 C0.66 0 1.32 0 2 0 C1.34 2.97 0.68 5.94 0 9 C-0.66 8.01 -1.32 7.02 -2 6 C-1.125 2.8125 -1.125 2.8125 0 0 Z " fill="#5E8BA1" transform="translate(182,206)"/>
<path d="M0 0 C1.98 0 3.96 0 6 0 C4.3545622 1.68762851 2.68711423 3.3540349 1 5 C0.67 5 0.34 5 0 5 C0 3.35 0 1.7 0 0 Z " fill="#527085" transform="translate(159,291)"/>
<path d="M0 0 C0.66 0.33 1.32 0.66 2 1 C1.34 2.32 0.68 3.64 0 5 C-1.65 5 -3.3 5 -5 5 C-3.35 3.35 -1.7 1.7 0 0 Z " fill="#6CAECB" transform="translate(175,251)"/>
<path d="M0 0 C0.33 0 0.66 0 1 0 C1.20140476 3.62528568 0.85776765 5.86501708 -1 9 C-1.66 9 -2.32 9 -3 9 C-2.69181644 7.68647977 -2.37832335 6.37420428 -2.0625 5.0625 C-1.88847656 4.33160156 -1.71445313 3.60070312 -1.53515625 2.84765625 C-1 1 -1 1 0 0 Z " fill="#19709B" transform="translate(147,247)"/>
<path d="M0 0 C0.66 0 1.32 0 2 0 C3.6875 1.8125 3.6875 1.8125 5 4 C4.67 4.99 4.34 5.98 4 7 C2.35 5.35 0.7 3.7 -1 2 C-0.67 1.34 -0.34 0.68 0 0 Z " fill="#5B7E92" transform="translate(122,182)"/>
<path d="M0 0 C1.32 0 2.64 0 4 0 C4 1.65 4 3.3 4 5 C2.68 5 1.36 5 0 5 C0 3.35 0 1.7 0 0 Z " fill="#478CAC" transform="translate(315,174)"/>
<path d="M0 0 C0.99 0.33 1.98 0.66 3 1 C3 1.99 3 2.98 3 4 C3.99 4.33 4.98 4.66 6 5 C5.67 5.66 5.34 6.32 5 7 C1.535 5.02 1.535 5.02 -2 3 C-1.34 2.67 -0.68 2.34 0 2 C0 1.34 0 0.68 0 0 Z " fill="#358EBB" transform="translate(145,170)"/>
<path d="M0 0 C1.32 0.66 2.64 1.32 4 2 C3.01 2.495 3.01 2.495 2 3 C2 3.99 2 4.98 2 6 C0.68 5.34 -0.64 4.68 -2 4 C-1.34 3.67 -0.68 3.34 0 3 C0 2.01 0 1.02 0 0 Z " fill="#0C3A5A" transform="translate(223,252)"/>
<path d="M0 0 C1.32 0.33 2.64 0.66 4 1 C3.01 1.66 2.02 2.32 1 3 C0.67 2.01 0.34 1.02 0 0 Z " fill="#ADD2E2" transform="translate(376,173)"/>
</svg>
